<svg width="28" height="28" viewBox="0 0 28 28" fill="none" xmlns="http://www.w3.org/2000/svg">
<g id="fluent:bot-24-regular">
<path id="Vector" d="M20.7114 16.3333C21.0561 16.3333 21.3975 16.4012 21.7159 16.5331C22.0344 16.665 22.3238 16.8583 22.5676 17.1021C22.8113 17.3459 23.0047 17.6352 23.1366 17.9537C23.2685 18.2722 23.3364 18.6135 23.3364 18.9583V20.0129C23.3366 20.6436 23.2004 21.2668 22.9372 21.8399C22.674 22.413 22.29 22.9224 21.8116 23.3333C19.9857 24.9013 17.3712 25.6666 13.9996 25.6666C10.6279 25.6666 8.0169 24.9013 6.19456 23.3333C5.71677 22.9227 5.33328 22.4138 5.07031 21.8413C4.80734 21.2689 4.6711 20.6464 4.6709 20.0164V18.9571C4.67121 18.2611 4.94791 17.5937 5.44016 17.1017C5.9324 16.6097 6.59991 16.3333 7.2959 16.3333H20.7114ZM20.7114 18.0833H7.29473C7.06267 18.0833 6.84011 18.1754 6.67601 18.3395C6.51192 18.5036 6.41973 18.7262 6.41973 18.9583V20.0164C6.41973 20.7806 6.75457 21.5074 7.3344 22.0068C8.80206 23.2691 11.0141 23.9166 13.9996 23.9166C16.9862 23.9166 19.2006 23.2668 20.6729 22.0033C20.9596 21.7567 21.1897 21.4511 21.3474 21.1074C21.505 20.7636 21.5866 20.3899 21.5864 20.0118V18.9559C21.5864 18.7239 21.4942 18.5013 21.3301 18.3372C21.166 18.1731 20.9435 18.0809 20.7114 18.0809V18.0833ZM13.8829 2.34025L13.9996 2.33325C14.211 2.33326 14.4153 2.40984 14.5746 2.54881C14.734 2.68779 14.8376 2.87977 14.8664 3.08925L14.8746 3.20825L14.8734 4.08209H18.9567C19.6529 4.08209 20.3206 4.35865 20.8129 4.85093C21.3052 5.34321 21.5817 6.01089 21.5817 6.70709V11.9629C21.5817 12.6591 21.3052 13.3268 20.8129 13.8191C20.3206 14.3114 19.6529 14.5879 18.9567 14.5879H9.04006C8.34387 14.5879 7.67619 14.3114 7.18391 13.8191C6.69163 13.3268 6.41506 12.6591 6.41506 11.9629V6.70825C6.41506 6.36343 6.483 6.02199 6.61499 5.70344C6.74698 5.38488 6.94044 5.09545 7.18432 4.85168C7.4282 4.60792 7.71771 4.41458 8.03633 4.28273C8.35494 4.15088 8.69641 4.0831 9.04123 4.08325L13.1246 4.08209V3.20825C13.1246 2.99663 13.2014 2.7922 13.3406 2.63282C13.4798 2.47344 13.672 2.36992 13.8817 2.34142L13.9996 2.33325L13.8806 2.34142L13.8829 2.34025ZM18.9579 5.83325H9.04123C8.80917 5.83325 8.58661 5.92544 8.42251 6.08953C8.25842 6.25363 8.16623 6.47619 8.16623 6.70825V11.9629C8.16623 12.4459 8.55823 12.8379 9.04123 12.8379H18.9579C19.19 12.8379 19.4125 12.7457 19.5766 12.5816C19.7407 12.4175 19.8329 12.195 19.8329 11.9629V6.70825C19.8329 6.47619 19.7407 6.25363 19.5766 6.08953C19.4125 5.92544 19.19 5.83325 18.9579 5.83325ZM11.3746 7.58325C11.5708 7.5754 11.7667 7.60727 11.9503 7.67696C12.1339 7.74665 12.3016 7.85272 12.4433 7.9888C12.5849 8.12489 12.6976 8.28818 12.7746 8.46889C12.8515 8.6496 12.8912 8.844 12.8912 9.04042C12.8912 9.23684 12.8515 9.43124 12.7746 9.61194C12.6976 9.79265 12.5849 9.95595 12.4433 10.092C12.3016 10.2281 12.1339 10.3342 11.9503 10.4039C11.7667 10.4736 11.5708 10.5054 11.3746 10.4976C10.9982 10.4825 10.6422 10.3224 10.3813 10.0508C10.1203 9.77916 9.97455 9.4171 9.97455 9.04042C9.97455 8.66374 10.1203 8.30168 10.3813 8.03005C10.6422 7.75843 10.9982 7.59832 11.3746 7.58325ZM16.6152 7.58325C16.8115 7.5754 17.0073 7.60727 17.191 7.67696C17.3746 7.74665 17.5423 7.85272 17.6839 7.9888C17.8256 8.12489 17.9383 8.28818 18.0152 8.46889C18.0922 8.6496 18.1319 8.844 18.1319 9.04042C18.1319 9.23684 18.0922 9.43124 18.0152 9.61194C17.9383 9.79265 17.8256 9.95595 17.6839 10.092C17.5423 10.2281 17.3746 10.3342 17.191 10.4039C17.0073 10.4736 16.8115 10.5054 16.6152 10.4976C16.2389 10.4825 15.8829 10.3224 15.6219 10.0508C15.361 9.77916 15.2152 9.4171 15.2152 9.04042C15.2152 8.66374 15.361 8.30168 15.6219 8.03005C15.8829 7.75843 16.2389 7.59832 16.6152 7.58325Z" fill="#8C909B" style="fill:#8C909B;fill:color(display-p3 0.5490 0.5647 0.6078);fill-opacity:1;"/>
</g>
</svg>
