<svg width="28" height="28" viewBox="0 0 28 28" fill="none" xmlns="http://www.w3.org/2000/svg">
<g id="fluent:bot-24-filled">
<path id="Vector" d="M20.7114 16.3333C21.0561 16.3333 21.3975 16.4012 21.7159 16.5331C22.0344 16.665 22.3238 16.8583 22.5676 17.1021C22.8113 17.3459 23.0047 17.6352 23.1366 17.9537C23.2685 18.2722 23.3364 18.6135 23.3364 18.9583V20.0129C23.3366 20.6436 23.2004 21.2668 22.9372 21.8399C22.674 22.413 22.29 22.9224 21.8116 23.3333C19.9857 24.9013 17.3712 25.6666 13.9996 25.6666C10.6279 25.6666 8.0169 24.9013 6.19456 23.3333C5.71677 22.9227 5.33328 22.4138 5.07031 21.8413C4.80734 21.2689 4.6711 20.6464 4.6709 20.0164V18.9571C4.67121 18.2611 4.94791 17.5937 5.44016 17.1017C5.9324 16.6097 6.59991 16.3333 7.2959 16.3333H20.7114ZM13.8829 2.34025L13.9996 2.33325C14.211 2.33326 14.4153 2.40984 14.5746 2.54881C14.734 2.68779 14.8376 2.87977 14.8664 3.08925L14.8746 3.20825L14.8734 4.08209H18.9567C19.6529 4.08209 20.3206 4.35865 20.8129 4.85093C21.3052 5.34321 21.5817 6.01089 21.5817 6.70709V11.9629C21.5817 12.6591 21.3052 13.3268 20.8129 13.8191C20.3206 14.3114 19.6529 14.5879 18.9567 14.5879H9.04006C8.34387 14.5879 7.67619 14.3114 7.18391 13.8191C6.69163 13.3268 6.41506 12.6591 6.41506 11.9629V6.70825C6.41506 6.36343 6.483 6.02199 6.61499 5.70344C6.74698 5.38488 6.94044 5.09545 7.18432 4.85168C7.4282 4.60792 7.71771 4.41458 8.03633 4.28273C8.35494 4.15088 8.69641 4.0831 9.04123 4.08325L13.1246 4.08209V3.20825C13.1246 2.99663 13.2014 2.7922 13.3406 2.63282C13.4798 2.47344 13.672 2.36992 13.8817 2.34142L13.9996 2.33325L13.8806 2.34142L13.8829 2.34025ZM11.3734 7.58325C11.1771 7.5754 10.9813 7.60727 10.7977 7.67696C10.614 7.74665 10.4464 7.85272 10.3047 7.9888C10.1631 8.12489 10.0504 8.28818 9.9734 8.46889C9.89642 8.6496 9.85674 8.844 9.85674 9.04042C9.85674 9.23684 9.89642 9.43124 9.9734 9.61194C10.0504 9.79265 10.1631 9.95595 10.3047 10.092C10.4464 10.2281 10.614 10.3342 10.7977 10.4039C10.9813 10.4736 11.1771 10.5054 11.3734 10.4976C11.7498 10.4825 12.1057 10.3224 12.3667 10.0508C12.6277 9.77916 12.7734 9.4171 12.7734 9.04042C12.7734 8.66374 12.6277 8.30168 12.3667 8.03005C12.1057 7.75843 11.7498 7.59832 11.3734 7.58325ZM16.6152 7.58325C16.419 7.5754 16.2231 7.60727 16.0395 7.67696C15.8559 7.74665 15.6882 7.85272 15.5465 7.9888C15.4049 8.12489 15.2922 8.28818 15.2152 8.46889C15.1383 8.6496 15.0986 8.844 15.0986 9.04042C15.0986 9.23684 15.1383 9.43124 15.2152 9.61194C15.2922 9.79265 15.4049 9.95595 15.5465 10.092C15.6882 10.2281 15.8559 10.3342 16.0395 10.4039C16.2231 10.4736 16.419 10.5054 16.6152 10.4976C16.9916 10.4825 17.3476 10.3224 17.6085 10.0508C17.8695 9.77916 18.0152 9.4171 18.0152 9.04042C18.0152 8.66374 17.8695 8.30168 17.6085 8.03005C17.3476 7.75843 16.9916 7.59832 16.6152 7.58325Z" fill="white" style="fill:white;fill:white;fill-opacity:1;"/>
</g>
</svg>
