<svg width="28" height="28" viewBox="0 0 28 28" fill="none" xmlns="http://www.w3.org/2000/svg">
<g id="fluent:bot-24-filled">
<path id="Vector" d="M20.7119 16.3333C21.0566 16.3333 21.398 16.4012 21.7164 16.5331C22.0349 16.665 22.3243 16.8584 22.568 17.1022C22.8118 17.3459 23.0052 17.6353 23.1371 17.9538C23.269 18.2723 23.3369 18.6136 23.3369 18.9583V20.013C23.337 20.6436 23.2009 21.2668 22.9377 21.8399C22.6745 22.413 22.2905 22.9225 21.8121 23.3333C19.9862 24.9013 17.3717 25.6666 14.0001 25.6666C10.6284 25.6666 8.01739 24.9013 6.19505 23.3333C5.71726 22.9227 5.33377 22.4138 5.0708 21.8414C4.80783 21.2689 4.67159 20.6464 4.67139 20.0165V18.9571C4.6717 18.2612 4.94839 17.5938 5.44064 17.1017C5.93289 16.6097 6.6004 16.3333 7.29639 16.3333H20.7119ZM13.8834 2.34031L14.0001 2.33331C14.2115 2.33332 14.4158 2.4099 14.5751 2.54887C14.7345 2.68785 14.8381 2.87983 14.8669 3.08931L14.8751 3.20831L14.8739 4.08215H18.9572C19.6534 4.08215 20.3211 4.35871 20.8134 4.85099C21.3057 5.34327 21.5822 6.01095 21.5822 6.70715V11.963C21.5822 12.6592 21.3057 13.3269 20.8134 13.8191C20.3211 14.3114 19.6534 14.588 18.9572 14.588H9.04055C8.34436 14.588 7.67668 14.3114 7.1844 13.8191C6.69211 13.3269 6.41555 12.6592 6.41555 11.963V6.70831C6.41555 6.3635 6.48349 6.02206 6.61548 5.7035C6.74747 5.38494 6.94093 5.09551 7.18481 4.85175C7.42869 4.60798 7.7182 4.41464 8.03682 4.28279C8.35543 4.15094 8.6969 4.08316 9.04172 4.08331L13.1251 4.08215V3.20831C13.1251 2.99669 13.2018 2.79226 13.3411 2.63288C13.4803 2.4735 13.6725 2.36998 13.8822 2.34148L14.0001 2.33331L13.8811 2.34148L13.8834 2.34031ZM11.3739 7.58331C11.1776 7.57546 10.9818 7.60733 10.7982 7.67702C10.6145 7.74671 10.4468 7.85278 10.3052 7.98886C10.1636 8.12495 10.0509 8.28825 9.97389 8.46895C9.89691 8.64966 9.85723 8.84406 9.85723 9.04048C9.85723 9.2369 9.89691 9.4313 9.97389 9.61201C10.0509 9.79271 10.1636 9.95601 10.3052 10.0921C10.4468 10.2282 10.6145 10.3342 10.7982 10.4039C10.9818 10.4736 11.1776 10.5055 11.3739 10.4976C11.7503 10.4826 12.1062 10.3225 12.3672 10.0508C12.6281 9.77922 12.7739 9.41716 12.7739 9.04048C12.7739 8.6638 12.6281 8.30174 12.3672 8.03011C12.1062 7.75849 11.7503 7.59838 11.3739 7.58331ZM16.6157 7.58331C16.4195 7.57546 16.2236 7.60733 16.04 7.67702C15.8563 7.74671 15.6887 7.85278 15.547 7.98886C15.4054 8.12495 15.2927 8.28825 15.2157 8.46895C15.1387 8.64966 15.0991 8.84406 15.0991 9.04048C15.0991 9.2369 15.1387 9.4313 15.2157 9.61201C15.2927 9.79271 15.4054 9.95601 15.547 10.0921C15.6887 10.2282 15.8563 10.3342 16.04 10.4039C16.2236 10.4736 16.4195 10.5055 16.6157 10.4976C16.9921 10.4826 17.348 10.3225 17.609 10.0508C17.87 9.77922 18.0157 9.41716 18.0157 9.04048C18.0157 8.6638 17.87 8.30174 17.609 8.03011C17.348 7.75849 16.9921 7.59838 16.6157 7.58331Z" fill="#999999" style="fill:#999999;fill:color(display-p3 0.6000 0.6000 0.6000);fill-opacity:1;"/>
</g>
</svg>
