<svg width="24" height="25" viewBox="0 0 24 25" fill="none" xmlns="http://www.w3.org/2000/svg">
<g id="bxs:phone-call">
<path id="Vector" d="M20.0002 11.834H22.0002C22.0002 6.70396 18.1272 2.83496 12.9902 2.83496V4.83496C17.0522 4.83496 20.0002 7.77796 20.0002 11.834Z" fill="white" style="fill:white;fill:white;fill-opacity:1;"/>
<path id="Vector_2" d="M12.9998 8.8352C15.1028 8.8352 15.9998 9.7322 15.9998 11.8352H17.9998C17.9998 8.6102 16.2248 6.8352 12.9998 6.8352V8.8352ZM16.4218 14.2782C16.2296 14.1036 15.9771 14.0104 15.7176 14.0184C15.4581 14.0265 15.2118 14.135 15.0308 14.3212L12.6378 16.7822C12.0618 16.6722 10.9038 16.3112 9.71179 15.1222C8.51979 13.9292 8.15879 12.7682 8.05179 12.1962L10.5108 9.8022C10.6972 9.62133 10.8059 9.37502 10.814 9.11541C10.822 8.85579 10.7287 8.60324 10.5538 8.4112L6.85879 4.3482C6.68384 4.15556 6.44067 4.0387 6.18095 4.02246C5.92122 4.00622 5.66539 4.09186 5.46779 4.2612L3.29779 6.1222C3.1249 6.29572 3.02171 6.52665 3.00779 6.7712C2.99279 7.0212 2.70679 12.9432 7.29879 17.5372C11.3048 21.5422 16.3228 21.8352 17.7048 21.8352C17.9068 21.8352 18.0308 21.8292 18.0638 21.8272C18.3083 21.8135 18.5391 21.7099 18.7118 21.5362L20.5718 19.3652C20.7413 19.1677 20.8271 18.912 20.811 18.6523C20.795 18.3925 20.6783 18.1493 20.4858 17.9742L16.4218 14.2782Z" fill="white" style="fill:white;fill:white;fill-opacity:1;"/>
</g>
</svg>
