<svg width="24" height="25" viewBox="0 0 24 25" fill="none" xmlns="http://www.w3.org/2000/svg">
<g id="carbon:location-filled">
<path id="Vector" d="M12 2.33496C9.81276 2.33754 7.71584 3.20756 6.16923 4.75418C4.62261 6.3008 3.75259 8.39772 3.75001 10.585C3.74739 12.3724 4.33124 14.1113 5.41201 15.535C5.41201 15.535 5.63701 15.8312 5.67376 15.874L12 23.335L18.3293 15.8702C18.3623 15.8305 18.588 15.535 18.588 15.535L18.5888 15.5327C19.669 14.1097 20.2526 12.3716 20.25 10.585C20.2474 8.39772 19.3774 6.3008 17.8308 4.75418C16.2842 3.20756 14.1873 2.33754 12 2.33496ZM12 13.585C11.4067 13.585 10.8266 13.409 10.3333 13.0794C9.83995 12.7497 9.45543 12.2812 9.22837 11.733C9.00131 11.1848 8.9419 10.5816 9.05765 9.99969C9.17341 9.41775 9.45913 8.8832 9.87869 8.46364C10.2982 8.04408 10.8328 7.75836 11.4147 7.6426C11.9967 7.52685 12.5999 7.58626 13.1481 7.81332C13.6962 8.04038 14.1648 8.4249 14.4944 8.91825C14.8241 9.4116 15 9.99162 15 10.585C14.999 11.3803 14.6826 12.1428 14.1202 12.7052C13.5578 13.2676 12.7954 13.584 12 13.585Z" fill="white" style="fill:white;fill:white;fill-opacity:1;"/>
</g>
</svg>
