<svg width="48" height="48" viewBox="0 0 48 48" fill="none" xmlns="http://www.w3.org/2000/svg">
<g id="fluent:people-community-32-filled">
<path id="Vector" d="M15 16.5C16.5913 16.5 18.1174 15.8679 19.2426 14.7426C20.3679 13.6174 21 12.0913 21 10.5C21 8.9087 20.3679 7.38258 19.2426 6.25736C18.1174 5.13214 16.5913 4.5 15 4.5C13.4087 4.5 11.8826 5.13214 10.7574 6.25736C9.63214 7.38258 9 8.9087 9 10.5C9 12.0913 9.63214 13.6174 10.7574 14.7426C11.8826 15.8679 13.4087 16.5 15 16.5ZM3 23.25C3 22.2554 3.39509 21.3016 4.09835 20.5983C4.80161 19.8951 5.75544 19.5 6.75 19.5H16.3125C15.9396 20.4562 15.7488 21.4737 15.75 22.5C15.75 25.29 17.1345 27.7575 19.2555 29.25H15.75C14.6531 29.2499 13.5771 29.5504 12.6391 30.119C11.701 30.6876 10.9368 31.5025 10.4295 32.475C7.5555 31.7355 5.7165 30.297 4.581 28.665C3 26.3925 3 24.039 3 23.625V23.25ZM37.5705 32.475C40.4445 31.7355 42.2835 30.297 43.419 28.665C45 26.3925 45 24.0375 45 23.625V23.25C45 22.2554 44.6049 21.3016 43.9017 20.5983C43.1984 19.8951 42.2446 19.5 41.25 19.5H31.6875C32.0505 20.43 32.25 21.441 32.25 22.5C32.25 25.29 30.8655 27.7575 28.7445 29.25H32.25C33.3469 29.2499 34.4229 29.5504 35.3609 30.119C36.299 30.6876 37.0632 31.5025 37.5705 32.475ZM39 10.5C39 12.0913 38.3679 13.6174 37.2426 14.7426C36.1174 15.8679 34.5913 16.5 33 16.5C31.4087 16.5 29.8826 15.8679 28.7574 14.7426C27.6321 13.6174 27 12.0913 27 10.5C27 8.9087 27.6321 7.38258 28.7574 6.25736C29.8826 5.13214 31.4087 4.5 33 4.5C34.5913 4.5 36.1174 5.13214 37.2426 6.25736C38.3679 7.38258 39 8.9087 39 10.5ZM12 35.25C12 34.2554 12.3951 33.3016 13.0983 32.5983C13.8016 31.8951 14.7554 31.5 15.75 31.5H32.25C32.7425 31.5 33.2301 31.597 33.6851 31.7855C34.14 31.9739 34.5534 32.2501 34.9017 32.5983C35.2499 32.9466 35.5261 33.36 35.7145 33.8149C35.903 34.2699 36 34.7575 36 35.25V35.625C36 36.0375 36 38.3925 34.419 40.665C32.769 43.0365 29.634 45 24 45C18.3675 45 15.231 43.0365 13.581 40.665C12 38.3925 12 36.039 12 35.625V35.25ZM24 28.5C25.5913 28.5 27.1174 27.8679 28.2426 26.7426C29.3679 25.6174 30 24.0913 30 22.5C30 20.9087 29.3679 19.3826 28.2426 18.2574C27.1174 17.1321 25.5913 16.5 24 16.5C22.4087 16.5 20.8826 17.1321 19.7574 18.2574C18.6321 19.3826 18 20.9087 18 22.5C18 24.0913 18.6321 25.6174 19.7574 26.7426C20.8826 27.8679 22.4087 28.5 24 28.5Z" fill="#77B255" style="fill:#77B255;fill:color(display-p3 0.4667 0.6980 0.3333);fill-opacity:1;"/>
</g>
</svg>
