<svg width="48" height="48" viewBox="0 0 48 48" fill="none" xmlns="http://www.w3.org/2000/svg">
<g id="fluent:people-community-32-filled">
<path id="Vector" d="M4.62868 21.1287C4.06607 21.6913 3.75 22.4543 3.75 23.25V23.625C3.75 23.998 3.75056 26.1581 5.19664 28.2367C6.15403 29.6127 7.67992 30.8676 10.0735 31.5964C10.6272 30.7362 11.3709 30.0107 12.2503 29.4776C13.3056 28.838 14.516 28.4999 15.75 28.5C15.75 28.5 15.7501 28.5 15.7501 28.5H17.2914C15.8668 26.9084 15.0002 24.8055 15 22.5008L4.62868 21.1287ZM4.62868 21.1287C5.19129 20.5661 5.95435 20.25 6.75 20.25H15.284M4.62868 21.1287L15.284 20.25M15.284 20.25C15.095 20.9836 14.9992 21.7396 15 22.5L15.284 20.25ZM33.398 32.4784L33.6851 31.7855L33.3981 32.4784C33.762 32.6291 34.0927 32.8501 34.3713 33.1287C34.6499 33.4073 34.8709 33.738 35.0216 34.1019C35.1724 34.4659 35.25 34.856 35.25 35.25V35.625C35.25 35.9965 35.2494 38.1581 33.8033 40.2367C32.3221 42.3655 29.4432 44.25 24 44.25C18.5582 44.25 15.6778 42.3655 14.1966 40.2367C12.7506 38.1581 12.75 35.998 12.75 35.625V35.25C12.75 34.4543 13.0661 33.6913 13.6287 33.1287C14.1913 32.5661 14.9544 32.25 15.75 32.25H32.25C32.644 32.25 33.0341 32.3276 33.398 32.4784ZM18.7123 14.2123C17.7277 15.1969 16.3924 15.75 15 15.75C13.6076 15.75 12.2723 15.1969 11.2877 14.2123C10.3031 13.2277 9.75 11.8924 9.75 10.5C9.75 9.10761 10.3031 7.77225 11.2877 6.78769C12.2723 5.80312 13.6076 5.25 15 5.25C16.3924 5.25 17.7277 5.80312 18.7123 6.78769C19.6969 7.77225 20.25 9.10761 20.25 10.5C20.25 11.8924 19.6969 13.2277 18.7123 14.2123ZM42.8033 28.2367C41.846 29.6127 40.3201 30.8676 37.9265 31.5964C37.3728 30.7362 36.6291 30.0107 35.7497 29.4776C34.6944 28.838 33.484 28.4999 32.25 28.5C32.25 28.5 32.2499 28.5 32.2499 28.5H30.7086C32.1333 26.9082 33 24.805 33 22.5C33 21.7233 32.9015 20.9695 32.7162 20.25H41.25C42.0456 20.25 42.8087 20.5661 43.3713 21.1287C43.9339 21.6913 44.25 22.4543 44.25 23.25V23.625C44.25 23.9965 44.2494 26.1581 42.8033 28.2367ZM38.25 10.5C38.25 11.8924 37.6969 13.2277 36.7123 14.2123C35.7277 15.1969 34.3924 15.75 33 15.75C31.6076 15.75 30.2723 15.1969 29.2877 14.2123C28.3031 13.2277 27.75 11.8924 27.75 10.5C27.75 9.10761 28.3031 7.77226 29.2877 6.78769C30.2723 5.80312 31.6076 5.25 33 5.25C34.3924 5.25 35.7277 5.80312 36.7123 6.78769C37.6969 7.77226 38.25 9.10761 38.25 10.5ZM27.7123 26.2123C26.7277 27.1969 25.3924 27.75 24 27.75C22.6076 27.75 21.2723 27.1969 20.2877 26.2123C19.3031 25.2277 18.75 23.8924 18.75 22.5C18.75 21.1076 19.3031 19.7723 20.2877 18.7877C21.2723 17.8031 22.6076 17.25 24 17.25C25.3924 17.25 26.7277 17.8031 27.7123 18.7877C28.6969 19.7723 29.25 21.1076 29.25 22.5C29.25 23.8924 28.6969 25.2277 27.7123 26.2123Z" stroke="#3E721D" style="stroke:#3E721D;stroke:color(display-p3 0.2431 0.4471 0.1137);stroke-opacity:1;" stroke-width="1.5"/>
</g>
</svg>
