<svg width="40" height="40" viewBox="0 0 40 40" fill="none" xmlns="http://www.w3.org/2000/svg">
<g id="local_shipping">
<mask id="mask0_150_1300" style="mask-type:alpha" maskUnits="userSpaceOnUse" x="0" y="0" width="40" height="40">
<rect id="Bounding box" width="40" height="40" fill="#D9D9D9" style="fill:#D9D9D9;fill:color(display-p3 0.8510 0.8510 0.8510);fill-opacity:1;"/>
</mask>
<g mask="url(#mask0_150_1300)">
<path id="local_shipping_2" d="M9.55887 33.3054C8.18635 33.3054 7.0186 32.8247 6.05562 31.8633C5.09265 30.9018 4.61116 29.7344 4.61116 28.361H1.66675V9.44425C1.66675 8.69425 1.94221 8.0438 2.49312 7.49288C3.04404 6.94196 3.6945 6.6665 4.4445 6.6665H28.3056V13.5276H32.889L38.3334 20.7776V28.361H35.2501C35.2501 29.7344 34.7697 30.9018 33.8089 31.8633C32.8481 32.8247 31.6815 33.3054 30.3089 33.3054C28.9364 33.3054 27.7686 32.8247 26.8057 31.8633C25.8427 30.9018 25.3612 29.7344 25.3612 28.361H14.5001C14.5001 29.7313 14.0197 30.898 13.0589 31.861C12.0981 32.8239 10.9314 33.3054 9.55887 33.3054ZM9.55562 30.5276C10.1575 30.5276 10.6691 30.317 11.0904 29.8957C11.5117 29.4744 11.7223 28.9628 11.7223 28.361C11.7223 27.7591 11.5117 27.2475 11.0904 26.8262C10.6691 26.4049 10.1575 26.1943 9.55562 26.1943C8.95376 26.1943 8.44218 26.4049 8.02087 26.8262C7.5996 27.2475 7.38896 27.7591 7.38896 28.361C7.38896 28.9628 7.5996 29.4744 8.02087 29.8957C8.44218 30.317 8.95376 30.5276 9.55562 30.5276ZM4.4445 25.5832H5.50004C5.97226 24.9165 6.55134 24.3841 7.23729 23.986C7.92323 23.5878 8.68714 23.3887 9.529 23.3887C10.3708 23.3887 11.139 23.5924 11.8334 23.9998C12.5279 24.4073 13.1112 24.935 13.5834 25.5832H25.5279V9.44425H4.4445V25.5832ZM30.3057 30.5276C30.9075 30.5276 31.4191 30.317 31.8404 29.8957C32.2617 29.4744 32.4723 28.9628 32.4723 28.361C32.4723 27.7591 32.2617 27.2475 31.8404 26.8262C31.4191 26.4049 30.9075 26.1943 30.3057 26.1943C29.7038 26.1943 29.1922 26.4049 28.7709 26.8262C28.3496 27.2475 28.139 27.7591 28.139 28.361C28.139 28.9628 28.3496 29.4744 28.7709 29.8957C29.1922 30.317 29.7038 30.5276 30.3057 30.5276ZM28.3056 22.0832H35.8334L31.5001 16.3054H28.3056V22.0832Z" fill="#4E4E4E" style="fill:#4E4E4E;fill:color(display-p3 0.3059 0.3059 0.3059);fill-opacity:1;"/>
</g>
</g>
</svg>
