<svg width="15" height="10" viewBox="0 0 15 10" fill="none" xmlns="http://www.w3.org/2000/svg">
<g id="Group 1000001751">
<path id="Vector" d="M12.735 0.904228C11.8259 0.520266 10.8667 0.246226 9.88121 0.0889391C9.87228 0.0875551 9.86311 0.0887504 9.85495 0.0923605C9.84679 0.0959706 9.84005 0.101818 9.83565 0.109099C9.7121 0.310704 9.57541 0.574403 9.47991 0.780846C8.41761 0.632472 7.33706 0.632472 6.27476 0.780846C6.16823 0.550871 6.0477 0.326601 5.91377 0.109099C5.90927 0.101898 5.90251 0.0961178 5.89438 0.0925192C5.88625 0.0889207 5.87712 0.0876726 5.86821 0.0889391C4.88248 0.245384 3.92304 0.519566 3.01442 0.904228C3.00664 0.906959 3.00014 0.912089 2.99602 0.918743C1.17878 3.41783 0.680216 5.85563 0.924677 8.26279C0.925553 8.27408 0.933439 8.28537 0.943077 8.29263C2.00129 9.01406 3.18492 9.56488 4.4435 9.92159C4.45239 9.92417 4.46194 9.92408 4.47076 9.92132C4.47958 9.91857 4.48722 9.91329 4.49257 9.90627C4.76244 9.56758 5.00252 9.21033 5.2093 8.83454C5.21361 8.8268 5.21509 8.81799 5.21351 8.80941C5.21193 8.80084 5.20738 8.79296 5.20054 8.78696C5.19601 8.78303 5.19064 8.78 5.18477 8.77809C4.80727 8.64457 4.44166 8.48414 4.09127 8.29827C4.08148 8.29317 4.0742 8.28479 4.07094 8.27489C4.06768 8.26498 4.06868 8.2543 4.07374 8.24505C4.07673 8.23905 4.08123 8.23379 4.08689 8.22973C4.16049 8.17892 4.23409 8.1257 4.30419 8.07248C4.31038 8.06789 4.31781 8.06495 4.32568 8.06395C4.33355 8.06296 4.34157 8.06395 4.34887 8.06683C6.64364 9.03131 9.12768 9.03131 11.3944 8.06683C11.402 8.06382 11.4103 8.06275 11.4185 8.06374C11.4267 8.06474 11.4344 8.06775 11.4408 8.07248C11.5109 8.1257 11.5845 8.17892 11.6581 8.22973C11.6641 8.23374 11.6689 8.23905 11.6721 8.24518C11.6753 8.25131 11.6768 8.25808 11.6764 8.26487C11.6761 8.27166 11.6739 8.27826 11.6701 8.28409C11.6663 8.28992 11.661 8.2948 11.6546 8.29827C11.3051 8.48584 10.939 8.64607 10.5603 8.77729C10.5542 8.7793 10.5487 8.78251 10.5442 8.78669C10.5397 8.79087 10.5362 8.79592 10.534 8.80148C10.532 8.80686 10.5311 8.81257 10.5316 8.81826C10.532 8.82394 10.5337 8.82948 10.5366 8.83454C10.7469 9.20953 10.9879 9.56758 11.2525 9.90627C11.2578 9.91329 11.2654 9.91857 11.2743 9.92132C11.2831 9.92408 11.2926 9.92417 11.3015 9.92159C12.5622 9.56598 13.7478 9.0151 14.8072 8.29263C14.8125 8.28925 14.8169 8.28481 14.8201 8.27964C14.8233 8.27448 14.8252 8.26872 14.8256 8.26279C15.1183 5.47984 14.3358 3.0622 12.7525 0.91955C12.7509 0.91601 12.7485 0.912818 12.7455 0.910179C12.7425 0.90754 12.7389 0.905513 12.735 0.904228ZM5.5519 6.79672C4.86057 6.79672 4.29192 6.21288 4.29192 5.49678C4.29192 4.77987 4.85006 4.19603 5.5519 4.19603C6.25899 4.19603 6.82239 4.78471 6.81187 5.49678C6.81187 6.21288 6.25373 6.79672 5.5519 6.79672ZM10.2098 6.79672C9.51934 6.79672 8.94981 6.21288 8.94981 5.49678C8.94981 4.77987 9.50795 4.19603 10.2098 4.19603C10.9169 4.19603 11.4812 4.78471 11.4698 5.49678C11.4698 6.21288 10.9169 6.79672 10.2098 6.79672Z" fill="white" style="fill:white;fill:white;fill-opacity:1;"/>
</g>
</svg>
