<svg width="20" height="20" viewBox="0 0 20 20" fill="none" xmlns="http://www.w3.org/2000/svg">
<g id="fluent:edit-24-regular">
<path id="Vector" d="M17.46 2.53997C16.9008 1.98082 16.1425 1.66669 15.3517 1.66669C14.5609 1.66669 13.8025 1.98082 13.2433 2.53997L3.28334 12.5C2.94484 12.8385 2.70685 13.2643 2.59584 13.73L1.68334 17.565C1.65864 17.6688 1.66095 17.7773 1.69007 17.88C1.71919 17.9828 1.77414 18.0763 1.84968 18.1518C1.92523 18.2272 2.01884 18.2821 2.1216 18.3111C2.22436 18.3401 2.33283 18.3423 2.43668 18.3175L6.27084 17.4041C6.73683 17.2933 7.16292 17.0553 7.50168 16.7166L17.46 6.75831C18.0192 6.19914 18.3333 5.44075 18.3333 4.64997C18.3333 3.8592 18.0192 3.10081 17.46 2.54164V2.53997ZM14.1267 3.42331C14.2875 3.26244 14.4785 3.13483 14.6887 3.04777C14.8989 2.96071 15.1242 2.9159 15.3517 2.9159C15.5792 2.9159 15.8045 2.96071 16.0146 3.04777C16.2248 3.13483 16.4158 3.26244 16.5767 3.42331C16.7375 3.58418 16.8652 3.77516 16.9522 3.98534C17.0393 4.19553 17.0841 4.4208 17.0841 4.64831C17.0841 4.87581 17.0393 5.10109 16.9522 5.31127C16.8652 5.52146 16.7375 5.71244 16.5767 5.87331L15.8333 6.61581L13.3833 4.16664L14.1267 3.42414V3.42331ZM12.5 5.05164L14.95 7.49997L6.61668 15.8333C6.44168 16.0083 6.22168 16.1308 5.98084 16.1883L3.13418 16.8666L3.81168 14.02C3.86918 13.7783 3.99251 13.5583 4.16751 13.3833L12.5 5.04997V5.05164Z" fill="#22D31D" style="fill:#22D31D;fill:color(display-p3 0.1331 0.8275 0.1131);fill-opacity:1;"/>
</g>
</svg>
