<svg width="25" height="24" viewBox="0 0 25 24" fill="none" xmlns="http://www.w3.org/2000/svg">
<g id="Facebook svg" clip-path="url(#clip0_230_1757)">
<g id="g10">
<g id="g12">
<path id="path14" d="M24.5 12C24.5 5.3726 19.1274 2.67029e-05 12.5 2.67029e-05C5.87258 2.67029e-05 0.5 5.3726 0.5 12C0.5 17.9896 4.88823 22.954 10.625 23.8542V15.4688H7.57813V12H10.625V9.35628C10.625 6.34878 12.4165 4.68753 15.1576 4.68753C16.4705 4.68753 17.8438 4.9219 17.8438 4.9219V7.87503H16.3306C14.8399 7.87503 14.375 8.80003 14.375 9.74902V12H17.7031L17.1711 15.4688H14.375V23.8542C20.1118 22.954 24.5 17.9896 24.5 12Z" fill="#1877F2" style="fill:#1877F2;fill:color(display-p3 0.0941 0.4667 0.9490);fill-opacity:1;"/>
<path id="path16" d="M17.1711 15.4688L17.7031 12H14.375V9.74899C14.375 8.80001 14.8399 7.875 16.3306 7.875H17.8438V4.92188C17.8438 4.92188 16.4705 4.6875 15.1576 4.6875C12.4165 4.6875 10.625 6.34875 10.625 9.35625V12H7.57812V15.4688H10.625V23.8542C11.2359 23.9501 11.8621 24 12.5 24C13.1379 24 13.7641 23.9501 14.375 23.8542V15.4688H17.1711Z" fill="white" style="fill:white;fill:white;fill-opacity:1;"/>
</g>
</g>
</g>
<defs>
<clipPath id="clip0_230_1757">
<rect width="24" height="24" fill="white" style="fill:white;fill:white;fill-opacity:1;" transform="translate(0.5)"/>
</clipPath>
</defs>
</svg>
