<svg width="28" height="28" viewBox="0 0 28 28" fill="none" xmlns="http://www.w3.org/2000/svg">
<g id="material-symbols:help-outline">
<path id="Vector" d="M13.9413 21.0002C14.3497 21.0002 14.695 20.859 14.9773 20.5767C15.2597 20.2943 15.4005 19.9494 15.3997 19.5418C15.3997 19.1335 15.2589 18.7882 14.9773 18.5058C14.6958 18.2235 14.3505 18.0827 13.9413 18.0835C13.533 18.0835 13.1881 18.2247 12.9065 18.507C12.625 18.7893 12.4838 19.1343 12.483 19.5418C12.483 19.9502 12.6242 20.2955 12.9065 20.5778C13.1888 20.8602 13.5338 21.0009 13.9413 21.0002ZM12.8913 16.5085H15.0497C15.0497 15.8668 15.1228 15.3613 15.269 14.9918C15.4152 14.6224 15.8282 14.1168 16.508 13.4752C17.0136 12.9696 17.4122 12.4882 17.7038 12.0308C17.9955 11.5735 18.1413 11.0244 18.1413 10.3835C18.1413 9.29461 17.7427 8.4585 16.9455 7.87516C16.1483 7.29183 15.2052 7.00016 14.1163 7.00016C13.008 7.00016 12.1085 7.29183 11.4178 7.87516C10.7272 8.4585 10.2461 9.1585 9.97467 9.97516L11.8997 10.7335C11.9969 10.3835 12.2158 10.0043 12.5565 9.596C12.8972 9.18766 13.4171 8.9835 14.1163 8.9835C14.7386 8.9835 15.2052 9.15383 15.5163 9.4945C15.8275 9.83516 15.983 10.2093 15.983 10.6168C15.983 11.0057 15.8663 11.3705 15.633 11.7112C15.3997 12.0518 15.108 12.3676 14.758 12.6585C13.9025 13.4168 13.3775 13.9904 13.183 14.3793C12.9886 14.7682 12.8913 15.4779 12.8913 16.5085ZM13.9997 25.6668C12.3858 25.6668 10.8691 25.3604 9.44967 24.7475C8.03023 24.1346 6.79551 23.3036 5.74551 22.2543C4.69551 21.2043 3.86445 19.9696 3.25234 18.5502C2.64023 17.1307 2.33379 15.6141 2.33301 14.0002C2.33301 12.3863 2.63945 10.8696 3.25234 9.45016C3.86523 8.03072 4.69629 6.796 5.74551 5.746C6.79551 4.696 8.03023 3.86494 9.44967 3.25283C10.8691 2.64072 12.3858 2.33427 13.9997 2.3335C15.6136 2.3335 17.1302 2.63994 18.5497 3.25283C19.9691 3.86572 21.2038 4.69677 22.2538 5.746C23.3038 6.796 24.1353 8.03072 24.7482 9.45016C25.3611 10.8696 25.6671 12.3863 25.6663 14.0002C25.6663 15.6141 25.3599 17.1307 24.747 18.5502C24.1341 19.9696 23.3031 21.2043 22.2538 22.2543C21.2038 23.3043 19.9691 24.1358 18.5497 24.7487C17.1302 25.3615 15.6136 25.6676 13.9997 25.6668ZM13.9997 23.3335C16.6052 23.3335 18.8122 22.4293 20.6205 20.621C22.4288 18.8127 23.333 16.6057 23.333 14.0002C23.333 11.3946 22.4288 9.18766 20.6205 7.37933C18.8122 5.571 16.6052 4.66683 13.9997 4.66683C11.3941 4.66683 9.18717 5.571 7.37884 7.37933C5.57051 9.18766 4.66634 11.3946 4.66634 14.0002C4.66634 16.6057 5.57051 18.8127 7.37884 20.621C9.18717 22.4293 11.3941 23.3335 13.9997 23.3335Z" fill="#8C909B" style="fill:#8C909B;fill:color(display-p3 0.5490 0.5647 0.6078);fill-opacity:1;"/>
</g>
</svg>
