<svg width="28" height="28" viewBox="0 0 28 28" fill="none" xmlns="http://www.w3.org/2000/svg">
<g id="material-symbols:help">
<path id="Vector" d="M13.9416 21C14.3499 21 14.6953 20.8589 14.9776 20.5765C15.2599 20.2942 15.4007 19.9493 15.3999 19.5417C15.3999 19.1334 15.2591 18.788 14.9776 18.5057C14.696 18.2234 14.3507 18.0826 13.9416 18.0834C13.5333 18.0834 13.1883 18.2245 12.9068 18.5069C12.6252 18.7892 12.484 19.1342 12.4833 19.5417C12.4833 19.95 12.6244 20.2954 12.9068 20.5777C13.1891 20.86 13.534 21.0008 13.9416 21ZM12.8916 16.5084H15.0499C15.0499 15.8667 15.123 15.3612 15.2693 14.9917C15.4155 14.6223 15.8285 14.1167 16.5083 13.475C17.0138 12.9695 17.4124 12.488 17.7041 12.0307C17.9958 11.5734 18.1416 11.0243 18.1416 10.3834C18.1416 9.29448 17.743 8.45837 16.9458 7.87504C16.1485 7.29171 15.2055 7.00004 14.1166 7.00004C13.0083 7.00004 12.1088 7.29171 11.4181 7.87504C10.7274 8.45837 10.2464 9.15837 9.97492 9.97504L11.8999 10.7334C11.9971 10.3834 12.2161 10.0042 12.5568 9.59587C12.8974 9.18754 13.4174 8.98337 14.1166 8.98337C14.7388 8.98337 15.2055 9.15371 15.5166 9.49437C15.8277 9.83504 15.9833 10.2092 15.9833 10.6167C15.9833 11.0056 15.8666 11.3704 15.6333 11.711C15.3999 12.0517 15.1083 12.3675 14.7583 12.6584C13.9027 13.4167 13.3777 13.9903 13.1833 14.3792C12.9888 14.7681 12.8916 15.4778 12.8916 16.5084ZM13.9999 25.6667C12.386 25.6667 10.8694 25.3603 9.44992 24.7474C8.03047 24.1345 6.79575 23.3034 5.74575 22.2542C4.69575 21.2042 3.8647 19.9695 3.25259 18.55C2.64047 17.1306 2.33403 15.6139 2.33325 14C2.33325 12.3862 2.6397 10.8695 3.25259 9.45004C3.86547 8.0306 4.69653 6.79587 5.74575 5.74587C6.79575 4.69587 8.03047 3.86482 9.44992 3.25271C10.8694 2.6406 12.386 2.33415 13.9999 2.33337C15.6138 2.33337 17.1305 2.63982 18.5499 3.25271C19.9694 3.8656 21.2041 4.69665 22.2541 5.74587C23.3041 6.79587 24.1355 8.0306 24.7484 9.45004C25.3613 10.8695 25.6674 12.3862 25.6666 14C25.6666 15.6139 25.3601 17.1306 24.7473 18.55C24.1344 19.9695 23.3033 21.2042 22.2541 22.2542C21.2041 23.3042 19.9694 24.1357 18.5499 24.7485C17.1305 25.3614 15.6138 25.6675 13.9999 25.6667Z" fill="white" style="fill:white;fill:white;fill-opacity:1;"/>
</g>
</svg>
