<svg width="15" height="15" viewBox="0 0 15 15" fill="none" xmlns="http://www.w3.org/2000/svg">
<g id="Group 1000001750">
<path id="Vector" fill-rule="evenodd" clip-rule="evenodd" d="M4.51676 0.181953C5.26424 0.145742 5.50257 0.137695 7.40666 0.137695C9.31074 0.137695 9.54907 0.146413 10.2959 0.181953C11.0428 0.217494 11.5526 0.342891 11.9986 0.524616C12.4657 0.710365 12.8895 1.00072 13.24 1.37625C13.5968 1.74439 13.8721 2.18965 14.048 2.68185C14.2213 3.15125 14.3399 3.68771 14.3743 4.47228C14.4087 5.26021 14.4163 5.511 14.4163 7.51401C14.4163 9.51768 14.4081 9.76848 14.3743 10.5551C14.3405 11.3396 14.2213 11.8761 14.048 12.3455C13.8721 12.8378 13.5964 13.2838 13.24 13.6524C12.8895 14.028 12.4657 14.3176 11.9986 14.5027C11.5526 14.6851 11.0428 14.8098 10.2972 14.8461C9.54907 14.8823 9.31074 14.8903 7.40666 14.8903C5.50257 14.8903 5.26424 14.8816 4.51676 14.8461C3.77118 14.8105 3.26138 14.6851 2.81531 14.5027C2.34753 14.3176 1.9237 14.0275 1.57333 13.6524C1.21671 13.2841 0.940742 12.8383 0.764663 12.3462C0.591969 11.8768 0.473442 11.3403 0.439031 10.5557C0.40462 9.76781 0.396973 9.51701 0.396973 7.51401C0.396973 5.51033 0.405257 5.25954 0.439031 4.47363C0.472805 3.68771 0.591969 3.15125 0.764663 2.68185C0.941002 2.18971 1.21718 1.74393 1.57396 1.37557C1.92384 1.00039 2.34724 0.709992 2.81468 0.524616C3.26075 0.342891 3.77054 0.218164 4.51612 0.181953H4.51676ZM10.2392 1.50969C9.5 1.47415 9.27824 1.46677 7.40666 1.46677C5.53507 1.46677 5.31331 1.47415 4.57411 1.50969C3.89034 1.54255 3.51947 1.66258 3.27222 1.76384C2.94531 1.89795 2.71144 2.05688 2.4661 2.31505C2.23354 2.55314 2.05456 2.84298 1.94229 3.16332C1.84607 3.42351 1.732 3.81378 1.70077 4.53331C1.667 5.31117 1.65999 5.54453 1.65999 7.51401C1.65999 9.48348 1.667 9.71684 1.70077 10.4947C1.732 11.2142 1.84607 11.6045 1.94229 11.8647C2.05444 12.1846 2.23351 12.4749 2.4661 12.713C2.69233 12.9577 2.96825 13.1462 3.27222 13.2642C3.51947 13.3654 3.89034 13.4855 4.57411 13.5183C5.31331 13.5539 5.53443 13.5612 7.40666 13.5612C9.27888 13.5612 9.5 13.5539 10.2392 13.5183C10.923 13.4855 11.2938 13.3654 11.5411 13.2642C11.868 13.1301 12.1019 12.9711 12.3472 12.713C12.5798 12.4749 12.7589 12.1846 12.871 11.8647C12.9673 11.6045 13.0813 11.2142 13.1125 10.4947C13.1463 9.71684 13.1533 9.48348 13.1533 7.51401C13.1533 5.54453 13.1463 5.31117 13.1125 4.53331C13.0813 3.81378 12.9673 3.42351 12.871 3.16332C12.7436 2.81932 12.5926 2.57322 12.3472 2.31505C12.1209 2.07034 11.8455 1.882 11.5411 1.76384C11.2938 1.66258 10.923 1.54255 10.2392 1.50969ZM6.51133 9.78792C7.01135 10.007 7.56812 10.0365 8.08655 9.87156C8.60498 9.7066 9.05291 9.35736 9.35383 8.88348C9.65475 8.40961 9.78999 7.84049 9.73645 7.27334C9.68292 6.70619 9.44393 6.17619 9.06031 5.77387C8.81576 5.51669 8.52006 5.31976 8.1945 5.19727C7.86895 5.07478 7.52164 5.02977 7.17757 5.06548C6.8335 5.1012 6.50123 5.21674 6.20469 5.4038C5.90815 5.59086 5.65471 5.84478 5.46262 6.14728C5.27053 6.44978 5.14456 6.79333 5.09379 7.15321C5.04302 7.51309 5.06871 7.88034 5.169 8.22851C5.2693 8.57669 5.4417 8.89714 5.67381 9.16678C5.90592 9.43643 6.19196 9.64857 6.51133 9.78792ZM4.85896 4.83305C5.19352 4.48098 5.59072 4.20171 6.02785 4.01117C6.46499 3.82063 6.93351 3.72257 7.40666 3.72257C7.87981 3.72257 8.34833 3.82063 8.78546 4.01117C9.2226 4.20171 9.61979 4.48098 9.95436 4.83305C10.2889 5.18512 10.5543 5.60309 10.7354 6.06309C10.9165 6.52308 11.0097 7.01611 11.0097 7.51401C11.0097 8.01191 10.9165 8.50493 10.7354 8.96493C10.5543 9.42493 10.2889 9.84289 9.95436 10.195C9.27867 10.906 8.36223 11.3054 7.40666 11.3054C6.45108 11.3054 5.53465 10.906 4.85896 10.195C4.18326 9.48393 3.80366 8.51956 3.80366 7.51401C3.80366 6.50845 4.18326 5.54409 4.85896 4.83305ZM11.8087 4.28721C11.8916 4.20491 11.958 4.10594 12.0039 3.99616C12.0498 3.88638 12.0744 3.76803 12.076 3.6481C12.0777 3.52818 12.0565 3.40912 12.0136 3.29798C11.9708 3.18684 11.9072 3.08588 11.8266 3.00107C11.746 2.91626 11.65 2.84933 11.5444 2.80424C11.4388 2.75915 11.3257 2.73682 11.2117 2.73857C11.0977 2.74032 10.9853 2.76611 10.8809 2.81442C10.7766 2.86273 10.6826 2.93258 10.6043 3.01982C10.4522 3.1895 10.369 3.41487 10.3722 3.6481C10.3754 3.88133 10.4649 4.10406 10.6217 4.26899C10.7784 4.43393 10.99 4.5281 11.2117 4.5315C11.4333 4.5349 11.6475 4.44726 11.8087 4.28721Z" fill="white" style="fill:white;fill:white;fill-opacity:1;"/>
</g>
</svg>
