<svg width="90" height="67" viewBox="0 0 90 67" fill="none" xmlns="http://www.w3.org/2000/svg">
<path id="Vector" d="M80.722 66.8044H8.35056C3.73861 66.8044 0 63.0658 0 58.4539V8.35056C0 3.73861 3.73861 0 8.35056 0H80.722C85.334 0 89.0726 3.73861 89.0726 8.35056V58.4539C89.0726 63.0658 85.334 66.8044 80.722 66.8044ZM19.4846 9.74232C14.1041 9.74232 9.74232 14.1041 9.74232 19.4846C9.74232 24.8652 14.1041 29.2269 19.4846 29.2269C24.8652 29.2269 29.2269 24.8652 29.2269 19.4846C29.2269 14.1041 24.8652 9.74232 19.4846 9.74232ZM11.1341 55.6704H77.9385V36.1857L62.7135 20.9608C61.8983 20.1455 60.5765 20.1455 59.7611 20.9608L36.1857 44.5363L26.5278 34.8784C25.7126 34.0631 24.3908 34.0631 23.5754 34.8784L11.1341 47.3198V55.6704Z" fill="#D9D9D9" style="fill:#D9D9D9;fill:color(display-p3 0.8510 0.8510 0.8510);fill-opacity:1;"/>
</svg>
