<svg width="25" height="24" viewBox="0 0 25 24" fill="none" xmlns="http://www.w3.org/2000/svg">
<path id="Path 2520" d="M20.9491 20.4496H17.3931V14.8805C17.3931 13.5525 17.3694 11.8429 15.5436 11.8429C13.6915 11.8429 13.4081 13.2899 13.4081 14.7838V20.4492H9.85203V8.99689H13.2658V10.562H13.3136C13.6553 9.97782 14.149 9.49726 14.7421 9.17149C15.3352 8.84572 16.0056 8.68693 16.6819 8.71203C20.2861 8.71203 20.9506 11.0828 20.9506 14.167L20.9491 20.4496ZM5.83963 7.43144C5.43148 7.43151 5.03247 7.31055 4.69307 7.08385C4.35367 6.85715 4.08913 6.53489 3.93287 6.15783C3.77661 5.78077 3.73566 5.36584 3.81521 4.96551C3.89477 4.56517 4.09125 4.19743 4.3798 3.90876C4.66835 3.6201 5.03602 3.42348 5.43631 3.34378C5.8366 3.26408 6.25152 3.30488 6.62863 3.46101C7.00573 3.61713 7.32807 3.88158 7.55489 4.22091C7.7817 4.56025 7.90281 4.95922 7.90288 5.36738C7.90293 5.63839 7.84959 5.90675 7.74593 6.15715C7.64227 6.40754 7.49032 6.63507 7.29873 6.82674C7.10714 7.0184 6.87966 7.17045 6.6293 7.27421C6.37895 7.37796 6.11062 7.43139 5.83963 7.43144ZM7.61765 20.4496H4.0579V8.99689H7.61765V20.4496ZM22.722 0.00163516H2.27099C1.80681 -0.00360329 1.35952 0.175663 1.02744 0.500042C0.695362 0.824421 0.505665 1.26737 0.5 1.73156V22.2681C0.505471 22.7325 0.695057 23.1758 1.02712 23.5005C1.35919 23.8252 1.80658 24.0048 2.27099 23.9999H22.722C23.1873 24.0057 23.6359 23.8266 23.9693 23.5019C24.3027 23.1772 24.4936 22.7334 24.5 22.2681V1.73008C24.4934 1.26497 24.3024 0.821515 23.969 0.497144C23.6356 0.172773 23.1871 -0.00598143 22.722 0.000152822" fill="#0A66C2" style="fill:#0A66C2;fill:color(display-p3 0.0392 0.4000 0.7608);fill-opacity:1;"/>
</svg>
