<svg width="28" height="28" viewBox="0 0 28 28" fill="none" xmlns="http://www.w3.org/2000/svg">
<g id="wpf:message-outline">
<path id="Vector" d="M3.23077 4.30762C1.44738 4.30762 0 5.755 0 7.53839V20.4615C0 22.2448 1.44738 23.6922 3.23077 23.6922H24.7692C26.5526 23.6922 28 22.2448 28 20.4615V7.53839C28 5.755 26.5526 4.30762 24.7692 4.30762H3.23077ZM3.23077 6.46146H24.7692C25.3626 6.46146 25.8462 6.945 25.8462 7.53839V8.07685L14 14.4716L2.15385 8.07685V7.53839C2.15385 6.945 2.63738 6.46146 3.23077 6.46146ZM2.15385 8.37946L9.18723 13.8653L2.28846 20.9332L10.7025 14.9422L14 17.0627L17.2986 14.9422L25.7115 20.9332L18.8128 13.8653L25.8462 8.37946V20.4615C25.8402 20.6273 25.794 20.7892 25.7115 20.9332C25.5338 21.2832 25.1882 21.5384 24.7692 21.5384H3.23077C2.81185 21.5384 2.46615 21.2842 2.28846 20.9332C2.20617 20.7895 2.15998 20.6269 2.15385 20.4615V8.37946Z" fill="#8C909B" style="fill:#8C909B;fill:color(display-p3 0.5490 0.5647 0.6078);fill-opacity:1;"/>
</g>
</svg>
