<svg width="28" height="28" viewBox="0 0 28 28" fill="none" xmlns="http://www.w3.org/2000/svg">
<g id="clarity:notification-outline-badged" clip-path="url(#clip0_721_3877)">
<path id="Vector" d="M14.0005 26.6622C14.4904 26.651 14.9606 26.4668 15.3278 26.1422C15.695 25.8177 15.9357 25.3738 16.0071 24.8889H11.916C11.9895 25.3869 12.2414 25.8413 12.6248 26.1675C13.0082 26.4937 13.4971 26.6695 14.0005 26.6622Z" fill="#4E4E4E" style="fill:#4E4E4E;fill:color(display-p3 0.3059 0.3059 0.3059);fill-opacity:1;"/>
<path id="Vector_2" d="M25.2854 21.6456C24.5354 20.977 23.8788 20.2105 23.3332 19.3667C22.7376 18.202 22.3806 16.9301 22.2832 15.6256V11.7834C22.28 11.3167 22.2384 10.851 22.1587 10.3912C21.5466 10.2688 20.9582 10.0482 20.4165 9.73784C20.623 10.4027 20.7279 11.095 20.7276 11.7912V15.6334C20.823 17.2247 21.2607 18.7768 22.011 20.1834C22.5479 21.0343 23.1851 21.8177 23.9087 22.5167H3.98985C4.7135 21.8177 5.35065 21.0343 5.88763 20.1834C6.63788 18.7768 7.07563 17.2247 7.17096 15.6334V11.7834C7.16687 10.8833 7.34037 9.99116 7.68152 9.15818C8.02268 8.32519 8.5248 7.56768 9.15913 6.92902C9.79345 6.29036 10.5475 5.78309 11.3782 5.43627C12.2088 5.08945 13.0997 4.90987 13.9998 4.90784C15.3172 4.90889 16.605 5.29848 17.7021 6.02784C17.5811 5.58372 17.5132 5.12683 17.4998 4.66673V4.17673C16.6877 3.77723 15.8153 3.51444 14.9176 3.39895V2.41895C14.9176 2.14357 14.8082 1.87946 14.6135 1.68474C14.4188 1.49001 14.1547 1.38062 13.8793 1.38062C13.6039 1.38062 13.3398 1.49001 13.1451 1.68474C12.9504 1.87946 12.841 2.14357 12.841 2.41895V3.43784C10.831 3.72138 8.99141 4.72253 7.66191 6.25645C6.33241 7.79038 5.60275 9.7535 5.60763 11.7834V15.6256C5.51021 16.9301 5.15323 18.202 4.55763 19.3667C4.02165 20.2086 3.37556 20.975 2.63651 21.6456C2.55355 21.7185 2.48706 21.8082 2.44146 21.9088C2.39587 22.0094 2.37221 22.1185 2.37207 22.2289V23.2867C2.37207 23.493 2.45401 23.6908 2.59988 23.8367C2.74574 23.9826 2.94357 24.0645 3.14985 24.0645H24.7721C24.9783 24.0645 25.1762 23.9826 25.322 23.8367C25.4679 23.6908 25.5498 23.493 25.5498 23.2867V22.2289C25.5497 22.1185 25.5261 22.0094 25.4805 21.9088C25.4349 21.8082 25.3684 21.7185 25.2854 21.6456Z" fill="#4E4E4E" style="fill:#4E4E4E;fill:color(display-p3 0.3059 0.3059 0.3059);fill-opacity:1;"/>
<path id="Vector_3" d="M23.3332 8.55561C25.481 8.55561 27.2221 6.8145 27.2221 4.66672C27.2221 2.51895 25.481 0.777832 23.3332 0.777832C21.1855 0.777832 19.4443 2.51895 19.4443 4.66672C19.4443 6.8145 21.1855 8.55561 23.3332 8.55561Z" fill="#EA4335" style="fill:#EA4335;fill:color(display-p3 0.9176 0.2627 0.2078);fill-opacity:1;"/>
</g>
<defs>
<clipPath id="clip0_721_3877">
<rect width="28" height="28" fill="white" style="fill:white;fill:white;fill-opacity:1;"/>
</clipPath>
</defs>
</svg>
