<svg width="134" height="134" viewBox="0 0 134 134" fill="none" xmlns="http://www.w3.org/2000/svg">
<g id="cancel">
<mask id="mask0_504_3931" style="mask-type:alpha" maskUnits="userSpaceOnUse" x="0" y="0" width="134" height="134">
<rect id="Bounding box" width="133.05" height="133.05" fill="#D9D9D9" style="fill:#D9D9D9;fill:color(display-p3 0.8510 0.8510 0.8510);fill-opacity:1;"/>
</mask>
<g mask="url(#mask0_504_3931)">
<path id="cancel_2" d="M44.5213 91.5356L64.8709 70.9597L85.2206 91.5356L89.6069 87.1006L69.2571 66.5249L89.6069 45.9491L85.2206 41.5141L64.8709 62.09L44.5213 41.5141L40.135 45.9491L60.4848 66.5249L40.135 87.1006L44.5213 91.5356ZM64.8801 119.19C57.7322 119.19 50.9976 117.808 44.6763 115.044C38.355 112.279 32.8269 108.504 28.0922 103.719C23.3575 98.9339 19.6224 93.3469 16.8871 86.9582C14.1518 80.5694 12.7842 73.7614 12.7842 66.5341C12.7842 59.25 14.1512 52.4033 16.8853 45.994C19.6194 39.5846 23.3528 34.0093 28.0854 29.2682C32.8181 24.527 38.3437 20.7736 44.6622 18.0079C50.9808 15.2422 57.714 13.8594 64.8617 13.8594C72.0658 13.8594 78.8373 15.2416 85.1762 18.0061C91.5152 20.7706 97.0291 24.5223 101.718 29.2613C106.407 34.0004 110.119 39.5732 112.855 45.9797C115.59 52.3862 116.958 59.2315 116.958 66.5156C116.958 73.7429 115.591 80.5523 112.857 86.9439C110.122 93.3355 106.412 98.9249 101.725 103.712C97.038 108.5 91.5264 112.276 85.1903 115.042C78.8542 117.808 72.0842 119.19 64.8801 119.19ZM64.8709 112.9C77.636 112.9 88.4717 108.384 97.3778 99.3503C106.284 90.3168 110.737 79.375 110.737 66.5249C110.737 53.6179 106.284 42.6619 97.3778 33.6568C88.4717 24.6518 77.636 20.1493 64.8709 20.1493C52.162 20.1493 41.3405 24.6518 32.4063 33.6568C23.4721 42.6619 19.005 53.6179 19.005 66.5249C19.005 79.375 23.4721 90.3168 32.4063 99.3503C41.3405 108.384 52.162 112.9 64.8709 112.9Z" fill="#4E4E4E" style="fill:#4E4E4E;fill:color(display-p3 0.3059 0.3059 0.3059);fill-opacity:1;"/>
</g>
</g>
</svg>
