<svg width="28" height="28" viewBox="0 0 28 28" fill="none" xmlns="http://www.w3.org/2000/svg">
<g id="solar:bag-5-bold">
<path id="Vector" fill-rule="evenodd" clip-rule="evenodd" d="M9.62532 8.169V7C9.62532 5.83968 10.0863 4.72688 10.9067 3.90641C11.7272 3.08594 12.84 2.625 14.0003 2.625C15.1606 2.625 16.2734 3.08594 17.0939 3.90641C17.9144 4.72688 18.3753 5.83968 18.3753 7V8.169C21.5067 8.183 23.1703 8.309 24.1037 9.44767C25.1537 10.7287 24.7675 12.6653 23.9928 16.5398L23.2928 20.0398C22.7538 22.7337 22.4843 24.08 21.516 24.8733C20.5488 25.6667 19.1757 25.6667 16.4293 25.6667H11.5713C8.82382 25.6667 7.45065 25.6667 6.48232 24.8733C5.51515 24.08 5.24565 22.7337 4.70665 20.0398L4.00665 16.5398C3.23198 12.6665 2.84465 10.7298 3.89465 9.44767C4.82798 8.309 6.49282 8.183 9.62415 8.169H9.62532ZM11.3753 7C11.3753 6.30381 11.6519 5.63613 12.1442 5.14384C12.6364 4.65156 13.3041 4.375 14.0003 4.375C14.6965 4.375 15.3642 4.65156 15.8565 5.14384C16.3488 5.63613 16.6253 6.30381 16.6253 7V8.16667H11.3753V7ZM17.5003 12.8333C17.8097 12.8333 18.1065 12.7104 18.3253 12.4916C18.5441 12.2728 18.667 11.9761 18.667 11.6667C18.667 11.3572 18.5441 11.0605 18.3253 10.8417C18.1065 10.6229 17.8097 10.5 17.5003 10.5C17.1909 10.5 16.8942 10.6229 16.6754 10.8417C16.4566 11.0605 16.3337 11.3572 16.3337 11.6667C16.3337 11.9761 16.4566 12.2728 16.6754 12.4916C16.8942 12.7104 17.1909 12.8333 17.5003 12.8333ZM11.667 11.6667C11.667 11.9761 11.5441 12.2728 11.3253 12.4916C11.1065 12.7104 10.8097 12.8333 10.5003 12.8333C10.1909 12.8333 9.89415 12.7104 9.67536 12.4916C9.45657 12.2728 9.33365 11.9761 9.33365 11.6667C9.33365 11.3572 9.45657 11.0605 9.67536 10.8417C9.89415 10.6229 10.1909 10.5 10.5003 10.5C10.8097 10.5 11.1065 10.6229 11.3253 10.8417C11.5441 11.0605 11.667 11.3572 11.667 11.6667Z" fill="white" style="fill:white;fill:white;fill-opacity:1;"/>
</g>
</svg>
