<svg width="28" height="28" viewBox="0 0 28 28" fill="none" xmlns="http://www.w3.org/2000/svg">
<g id="solar:bag-4-outline">
<g id="Group">
<path id="Vector" d="M18.6666 10.5C18.6666 10.8094 18.5437 11.1061 18.3249 11.3249C18.1061 11.5437 17.8093 11.6666 17.4999 11.6666C17.1905 11.6666 16.8938 11.5437 16.675 11.3249C16.4562 11.1061 16.3333 10.8094 16.3333 10.5C16.3333 10.1906 16.4562 9.89381 16.675 9.67502C16.8938 9.45623 17.1905 9.33331 17.4999 9.33331C17.8093 9.33331 18.1061 9.45623 18.3249 9.67502C18.5437 9.89381 18.6666 10.1906 18.6666 10.5ZM11.6666 10.5C11.6666 10.8094 11.5437 11.1061 11.3249 11.3249C11.1061 11.5437 10.8093 11.6666 10.4999 11.6666C10.1905 11.6666 9.89375 11.5437 9.67496 11.3249C9.45617 11.1061 9.33325 10.8094 9.33325 10.5C9.33325 10.1906 9.45617 9.89381 9.67496 9.67502C9.89375 9.45623 10.1905 9.33331 10.4999 9.33331C10.8093 9.33331 11.1061 9.45623 11.3249 9.67502C11.5437 9.89381 11.6666 10.1906 11.6666 10.5Z" fill="#8C909B" style="fill:#8C909B;fill:color(display-p3 0.5490 0.5647 0.6078);fill-opacity:1;"/>
<path id="Vector_2" fill-rule="evenodd" clip-rule="evenodd" d="M14 3.20831C13.3038 3.20831 12.6361 3.48487 12.1438 3.97716C11.6516 4.46944 11.375 5.13712 11.375 5.83331V6.12965C11.8627 6.12498 12.3877 6.12498 12.9558 6.12498H15.0442C15.6123 6.12498 16.1385 6.12498 16.625 6.12965V5.83331C16.625 5.13712 16.3484 4.46944 15.8562 3.97716C15.3639 3.48487 14.6962 3.20831 14 3.20831ZM18.375 6.19148V5.83331C18.375 4.67299 17.9141 3.56019 17.0936 2.73972C16.2731 1.91925 15.1603 1.45831 14 1.45831C12.8397 1.45831 11.7269 1.91925 10.9064 2.73972C10.0859 3.56019 9.625 4.67299 9.625 5.83331V6.19148C9.4675 6.20315 9.31583 6.21598 9.16884 6.23231C8.1445 6.34315 7.287 6.57415 6.52633 7.09565C6.26455 7.2749 6.01865 7.47631 5.79134 7.69765C5.131 8.34165 4.7355 9.13731 4.42633 10.1196C4.1265 11.0751 3.88383 12.2885 3.57817 13.8133L3.556 13.9241C3.11734 16.121 2.77083 17.8523 2.67167 19.2313C2.569 20.6406 2.71133 21.8248 3.37867 22.8526C3.6015 23.1956 3.86167 23.5118 4.15333 23.7976C5.03067 24.654 6.16467 25.025 7.56583 25.2023C8.93784 25.375 10.7042 25.375 12.9442 25.375H15.0558C17.297 25.375 19.0622 25.375 20.4342 25.2023C21.8353 25.025 22.9705 24.654 23.8467 23.7976C24.1389 23.5122 24.3987 23.1952 24.6213 22.8526C25.2887 21.826 25.431 20.6406 25.3295 19.2313C25.2292 17.8523 24.8838 16.121 24.4428 13.9241L24.4218 13.8133C24.1173 12.2885 23.8735 11.0751 23.5737 10.1196C23.2645 9.13731 22.869 8.34165 22.2087 7.69765C21.9814 7.4763 21.7355 7.27489 21.4737 7.09565C20.713 6.57415 19.8555 6.34315 18.8312 6.23231C18.6797 6.2161 18.5281 6.20249 18.3762 6.19148H18.375ZM9.35667 7.97181C8.48517 8.06515 7.94733 8.24365 7.51567 8.53881C7.33653 8.66182 7.1683 8.79999 7.01284 8.95181C6.63833 9.31698 6.3595 9.80931 6.09583 10.6446C5.8275 11.4998 5.60117 12.6198 5.285 14.2053C4.83 16.478 4.50683 18.102 4.417 19.3573C4.32717 20.5963 4.47767 21.3325 4.84633 21.8995C4.998 22.1328 5.1765 22.351 5.376 22.5458C5.86017 23.0183 6.552 23.31 7.78517 23.4663C9.0335 23.6238 10.6902 23.625 13.0072 23.625H14.994C17.311 23.625 18.9653 23.6238 20.2148 23.4663C21.448 23.31 22.1398 23.0183 22.624 22.5458C22.8238 22.3505 23.0015 22.1338 23.1537 21.8995C23.5223 21.3325 23.6728 20.5963 23.5842 19.3561C23.4932 18.1008 23.17 16.478 22.7162 14.2053C22.3988 12.6198 22.1737 11.4986 21.9042 10.6446C21.6417 9.80931 21.3617 9.31698 20.9872 8.95181C20.8321 8.80003 20.6642 8.66185 20.4855 8.53881C20.0538 8.24365 19.5148 8.06631 18.6433 7.97181C17.7532 7.87615 16.6098 7.87498 14.9928 7.87498H13.0083C11.3913 7.87498 10.248 7.87615 9.35667 7.97181Z" fill="#8C909B" style="fill:#8C909B;fill:color(display-p3 0.5490 0.5647 0.6078);fill-opacity:1;"/>
</g>
</g>
</svg>
