<svg width="181" height="204" viewBox="0 0 181 204" fill="none" xmlns="http://www.w3.org/2000/svg">
<path id="package_2" d="M87.4077 196.963V103.775L6.94756 56.7376V144.6C6.94756 146.178 7.33767 147.657 8.11789 149.038C8.89811 150.418 10.0684 151.601 11.6289 152.588L87.4077 196.963ZM93.8445 196.963L169.623 152.588C171.184 151.601 172.354 150.418 173.134 149.038C173.915 147.657 174.305 146.178 174.305 144.6V56.7376L93.8445 103.775V196.963ZM82.7264 201.696L8.41047 158.208C5.87475 156.828 3.9242 154.856 2.55882 152.292C1.19343 149.728 0.510742 147.065 0.510742 144.304V59.6959C0.510742 56.9348 1.19343 54.2723 2.55882 51.7084C3.9242 49.1445 5.87475 47.1723 8.41047 45.7917L82.7264 2.30423C85.2621 0.923676 87.8954 0.233398 90.6261 0.233398C93.3569 0.233398 95.9901 0.923676 98.5258 2.30423L172.842 45.7917C175.378 47.1723 177.328 49.1445 178.693 51.7084C180.059 54.2723 180.742 56.9348 180.742 59.6959V144.304C180.742 147.065 180.059 149.728 178.693 152.292C177.328 154.856 175.378 156.828 172.842 158.208L98.5258 201.696C95.9901 203.076 93.3569 203.767 90.6261 203.767C87.8954 203.767 85.2621 203.076 82.7264 201.696ZM133.343 73.3042L170.209 51.7084L95.3074 7.92507C93.747 7.13618 92.1866 6.74173 90.6261 6.74173C89.0657 6.74173 87.5052 7.13618 85.9448 7.92507L54.3459 26.2667L133.343 73.3042ZM90.6261 98.4501L127.199 76.8542L47.6165 30.4084L11.0437 51.7084L90.6261 98.4501Z" fill="#4E4E4E" style="fill:#4E4E4E;fill:color(display-p3 0.3059 0.3059 0.3059);fill-opacity:1;"/>
</svg>
