<svg width="28" height="28" viewBox="0 0 28 28" fill="none" xmlns="http://www.w3.org/2000/svg">
<g id="basil:card-outline">
<path id="Vector" fill-rule="evenodd" clip-rule="evenodd" d="M22.3815 5.73075L14.0001 5.54175L5.6188 5.73075C4.86545 5.74782 4.14099 6.02399 3.56745 6.51274C2.99391 7.0015 2.60632 7.67297 2.46997 8.41408C1.79126 12.1068 1.79126 15.8922 2.46997 19.5849C2.60636 20.3262 2.99412 20.9978 3.5679 21.4866C4.14168 21.9754 4.86641 22.2514 5.61997 22.2682L14.0001 22.4584L22.3815 22.2694C23.1348 22.2523 23.8593 21.9762 24.4328 21.4874C25.0064 20.9987 25.3939 20.3272 25.5303 19.5861C26.2081 15.8924 26.2081 12.1077 25.5303 8.41525C25.3939 7.67395 25.0061 7.00232 24.4324 6.51355C23.8586 6.02477 23.1339 5.74872 22.3803 5.73191L22.3815 5.73075ZM5.65847 7.48075L14.0001 7.29175L22.3418 7.48075C23.0651 7.49708 23.6776 8.01858 23.8083 8.73141C23.988 9.70441 24.1163 10.6844 24.1956 11.6667H3.80347C3.88258 10.6824 4.01186 9.70264 4.1908 8.73141C4.2543 8.38597 4.43495 8.07296 4.70228 7.84515C4.96962 7.61734 5.30732 7.48864 5.65847 7.48075ZM3.7113 14.0001C3.7113 15.7641 3.87113 17.5269 4.19197 19.2687C4.32263 19.9804 4.93513 20.5031 5.65847 20.5194L14.0001 20.7084L22.3418 20.5194C22.6927 20.5113 23.0302 20.3824 23.2973 20.1546C23.5644 19.9269 23.7448 19.614 23.8083 19.2687C24.1291 17.5269 24.289 15.7641 24.289 14.0001H3.7113Z" fill="#8C909B" style="fill:#8C909B;fill:color(display-p3 0.5490 0.5647 0.6078);fill-opacity:1;"/>
</g>
</svg>
