<svg width="28" height="28" viewBox="0 0 28 28" fill="none" xmlns="http://www.w3.org/2000/svg">
<g id="basil:card-solid">
<path id="Vector" fill-rule="evenodd" clip-rule="evenodd" d="M22.3812 5.44367L13.9999 5.25L5.61854 5.44367C4.79675 5.45998 4.00583 5.75964 3.37954 6.29196C2.75326 6.82428 2.33006 7.55658 2.18154 8.365C1.49678 12.0905 1.49678 15.9095 2.18154 19.635C2.33023 20.4431 2.75331 21.1752 3.37931 21.7074C4.00531 22.2397 4.79585 22.5395 5.61737 22.5563L13.9999 22.75L22.3812 22.5563C23.2027 22.5395 23.9933 22.2397 24.6193 21.7074C25.2453 21.1752 25.6684 20.4431 25.817 19.635C26.5018 15.9095 26.5018 12.0905 25.817 8.365C25.6686 7.55678 25.2455 6.82462 24.6195 6.29233C23.9934 5.76003 23.2028 5.46025 22.3812 5.44367ZM24.4999 12.8333C24.4999 13.1428 24.377 13.4395 24.1582 13.6583C23.9394 13.8771 23.6426 14 23.3332 14H4.66654C4.35712 14 4.06037 13.8771 3.84158 13.6583C3.62279 13.4395 3.49987 13.1428 3.49987 12.8333C3.49987 12.5239 3.62279 12.2272 3.84158 12.0084C4.06037 11.7896 4.35712 11.6667 4.66654 11.6667H23.3332C23.6426 11.6667 23.9394 11.7896 24.1582 12.0084C24.377 12.2272 24.4999 12.5239 24.4999 12.8333Z" fill="white" style="fill:white;fill:white;fill-opacity:1;"/>
</g>
</svg>
