<svg width="20" height="20" viewBox="0 0 20 20" fill="none" xmlns="http://www.w3.org/2000/svg">
<g id="vuesax/outline/search-normal">
<g id="search-normal">
<path id="Vector" d="M9.58366 17.6251C5.15147 17.6251 1.54199 14.0156 1.54199 9.58342C1.54199 5.15122 5.15147 1.54175 9.58366 1.54175C14.0159 1.54175 17.6253 5.15122 17.6253 9.58342C17.6253 14.0156 14.0159 17.6251 9.58366 17.6251ZM9.58366 1.79175C5.28215 1.79175 1.79199 5.29098 1.79199 9.58342C1.79199 13.8759 5.28215 17.3751 9.58366 17.3751C13.8852 17.3751 17.3753 13.8759 17.3753 9.58342C17.3753 5.29098 13.8852 1.79175 9.58366 1.79175Z" fill="#4E4E4E" stroke="#4E4E4E" style="fill:#4E4E4E;fill:color(display-p3 0.3059 0.3059 0.3059);fill-opacity:1;stroke:#4E4E4E;stroke:color(display-p3 0.3059 0.3059 0.3059);stroke-opacity:1;"/>
<path id="Vector_2" d="M18.3335 18.4583C18.3158 18.4583 18.3003 18.4551 18.287 18.4497C18.2741 18.4445 18.2601 18.4361 18.2454 18.4214L16.5787 16.7547C16.5572 16.7332 16.5439 16.7025 16.5439 16.6666C16.5439 16.6308 16.5572 16.6 16.5787 16.5785C16.6003 16.557 16.631 16.5437 16.6669 16.5437C16.7027 16.5437 16.7334 16.557 16.755 16.5785L18.4216 18.2452C18.4432 18.2667 18.4564 18.2974 18.4564 18.3333C18.4564 18.3691 18.4432 18.3999 18.4216 18.4214C18.407 18.4361 18.3929 18.4445 18.3801 18.4497C18.3667 18.4551 18.3512 18.4583 18.3335 18.4583Z" fill="#4E4E4E" stroke="#4E4E4E" style="fill:#4E4E4E;fill:color(display-p3 0.3059 0.3059 0.3059);fill-opacity:1;stroke:#4E4E4E;stroke:color(display-p3 0.3059 0.3059 0.3059);stroke-opacity:1;"/>
</g>
</g>
</svg>
