<svg width="28" height="28" viewBox="0 0 28 28" fill="none" xmlns="http://www.w3.org/2000/svg">
<g id="mdi:settings-outline">
<path id="Vector" d="M14.0001 9.3335C15.2378 9.3335 16.4247 9.82516 17.2999 10.7003C18.1751 11.5755 18.6667 12.7625 18.6667 14.0002C18.6667 15.2378 18.1751 16.4248 17.2999 17.3C16.4247 18.1752 15.2378 18.6668 14.0001 18.6668C12.7624 18.6668 11.5754 18.1752 10.7002 17.3C9.82508 16.4248 9.33341 15.2378 9.33341 14.0002C9.33341 12.7625 9.82508 11.5755 10.7002 10.7003C11.5754 9.82516 12.7624 9.3335 14.0001 9.3335ZM14.0001 11.6668C13.3812 11.6668 12.7877 11.9127 12.3502 12.3502C11.9126 12.7878 11.6667 13.3813 11.6667 14.0002C11.6667 14.619 11.9126 15.2125 12.3502 15.6501C12.7877 16.0877 13.3812 16.3335 14.0001 16.3335C14.6189 16.3335 15.2124 16.0877 15.65 15.6501C16.0876 15.2125 16.3334 14.619 16.3334 14.0002C16.3334 13.3813 16.0876 12.7878 15.65 12.3502C15.2124 11.9127 14.6189 11.6668 14.0001 11.6668ZM11.6667 25.6668C11.3751 25.6668 11.1301 25.4568 11.0834 25.1768L10.6517 22.0852C9.91674 21.7935 9.28674 21.3968 8.68008 20.9302L5.77508 22.1085C5.51841 22.2018 5.20341 22.1085 5.06341 21.8518L2.73008 17.8152C2.65867 17.695 2.6335 17.5529 2.65927 17.4154C2.68503 17.278 2.75998 17.1547 2.87008 17.0685L5.33175 15.1318L5.25008 14.0002L5.33175 12.8335L2.87008 10.9318C2.75998 10.8457 2.68503 10.7223 2.65927 10.5849C2.6335 10.4475 2.65867 10.3054 2.73008 10.1852L5.06341 6.1485C5.20341 5.89183 5.51841 5.78683 5.77508 5.89183L8.68008 7.0585C9.28674 6.6035 9.91674 6.20683 10.6517 5.91516L11.0834 2.8235C11.1301 2.5435 11.3751 2.3335 11.6667 2.3335H16.3334C16.6251 2.3335 16.8701 2.5435 16.9167 2.8235L17.3484 5.91516C18.0834 6.20683 18.7134 6.6035 19.3201 7.0585L22.2251 5.89183C22.4817 5.78683 22.7967 5.89183 22.9367 6.1485L25.2701 10.1852C25.4217 10.4418 25.3517 10.7568 25.1301 10.9318L22.6684 12.8335L22.7501 14.0002L22.6684 15.1668L25.1301 17.0685C25.3517 17.2435 25.4217 17.5585 25.2701 17.8152L22.9367 21.8518C22.7967 22.1085 22.4817 22.2135 22.2251 22.1085L19.3201 20.9418C18.7134 21.3968 18.0834 21.7935 17.3484 22.0852L16.9167 25.1768C16.8701 25.4568 16.6251 25.6668 16.3334 25.6668H11.6667ZM13.1251 4.66683L12.6934 7.71183C11.2934 8.0035 10.0567 8.75016 9.15841 9.7885L6.34674 8.57516L5.47175 10.0918L7.93341 11.9002C7.46674 13.2613 7.46674 14.7391 7.93341 16.1002L5.46008 17.9202L6.33508 19.4368L9.17008 18.2235C10.0684 19.2502 11.2934 19.9968 12.6817 20.2768L13.1134 23.3335H14.8867L15.3184 20.2885C16.7067 19.9968 17.9317 19.2502 18.8301 18.2235L21.6651 19.4368L22.5401 17.9202L20.0667 16.1118C20.5334 14.7468 20.5334 13.2652 20.0667 11.9002L22.5284 10.0918L21.6534 8.57516L18.8417 9.7885C17.925 8.72721 16.6815 8.00078 15.3067 7.7235L14.8751 4.66683H13.1251Z" fill="#8C909B" style="fill:#8C909B;fill:color(display-p3 0.5490 0.5647 0.6078);fill-opacity:1;"/>
</g>
</svg>
