<svg width="48" height="48" viewBox="0 0 48 48" fill="none" xmlns="http://www.w3.org/2000/svg">
<g id="twemoji:farmer" clip-path="url(#clip0_356_766)">
<path id="Vector" d="M47.5001 45.3333V47.4999H11.1667V45.3333C11.1667 43.3441 11.9569 41.4365 13.3634 40.03C14.77 38.6234 16.6776 37.8333 18.6667 37.8333H40.0001C41.9892 37.8333 43.8969 38.6234 45.3034 40.03C46.7099 41.4365 47.5001 43.3441 47.5001 45.3333Z" stroke="#3E721D" style="stroke:#3E721D;stroke:color(display-p3 0.2431 0.4471 0.1137);stroke-opacity:1;"/>
<path id="Vector_2" d="M23.1991 37.8333H35.4678C35.2601 39.4653 34.0784 41.1328 32.7012 42.4752C31.955 43.2026 31.1792 43.8071 30.534 44.2266C30.2109 44.4366 29.9277 44.5956 29.7028 44.7001C29.5903 44.7524 29.4987 44.7881 29.4286 44.8098C29.3694 44.8282 29.3398 44.8322 29.3334 44.833C29.3271 44.8322 29.2974 44.8282 29.2383 44.8098C29.1681 44.7881 29.0766 44.7524 28.964 44.7001C28.7392 44.5956 28.4559 44.4366 28.1328 44.2266C27.4876 43.8071 26.7118 43.2026 25.9656 42.4752C24.5885 41.1328 23.4068 39.4653 23.1991 37.8333Z" stroke="#3E721D" style="stroke:#3E721D;stroke:color(display-p3 0.2431 0.4471 0.1137);stroke-opacity:1;"/>
<path id="Vector_3" d="M34.6467 37.3839C34.6467 38.0758 34.1471 38.6761 33.128 39.1263C32.1224 39.5706 30.7447 39.7973 29.3367 39.7879C27.9291 39.7786 26.5491 39.5337 25.5404 39.0836C24.5111 38.6242 24.02 38.0313 24.02 37.3839V32.8853H34.6467V37.3839Z" stroke="#3E721D" style="stroke:#3E721D;stroke:color(display-p3 0.2431 0.4471 0.1137);stroke-opacity:1;"/>
<path id="Vector_4" d="M24.4419 6.24473L24.2017 6.24935C23.7737 6.25758 23.4509 6.46125 23.1108 6.8543C22.9373 7.05486 22.7705 7.29217 22.589 7.5623C22.5485 7.62257 22.5071 7.68478 22.4648 7.74834C22.3227 7.9617 22.1705 8.19024 22.0096 8.41128C21.5882 8.9899 21.0579 9.58866 20.2846 9.96223C19.5702 10.3073 18.6981 10.4372 17.5966 10.2559C16.7538 11.4785 16.1663 12.8986 15.972 14.404L24.4419 6.24473ZM24.4419 6.24473L24.5884 6.05425M24.4419 6.24473L24.5884 6.05425M24.5884 6.05425C24.8868 5.66622 25.4033 5.32788 26.1054 5.06123C26.8009 4.79711 27.6369 4.61921 28.5209 4.52443C30.298 4.33389 32.1827 4.48766 33.3821 4.87581C34.0896 5.10484 34.5991 5.59962 35.05 6.25741C35.2762 6.58735 35.4809 6.94825 35.6877 7.32718C35.7323 7.40882 35.7772 7.49173 35.8224 7.57534C35.9833 7.87259 36.149 8.17865 36.3218 8.46751C36.7625 9.20394 37.3104 9.93818 38.1499 10.3217C38.9277 10.677 39.8669 10.6937 41.0426 10.3035C42.3145 12.2542 42.9487 14.5825 42.8511 17.2149C42.6651 22.2327 41.7123 26.1251 39.7756 28.7546C37.8631 31.3514 34.9376 32.7868 30.6147 32.7868C30.4388 32.7868 30.2662 32.787 30.0967 32.7872C28.0429 32.7894 26.4513 32.7911 25.072 32.4518C23.6236 32.0954 22.4033 31.3575 21.1921 29.757L21.0932 29.6263L20.9361 29.5796C20.0984 29.3301 19.1885 28.9169 18.4252 28.1251C17.6661 27.3377 17.0161 26.1385 16.7595 24.254L16.7595 24.2539M24.5884 6.05425L16.7595 24.2539M16.7595 24.2539C16.6263 23.2771 16.4636 22.4384 16.3092 21.6429M16.7595 24.2539L16.3092 21.6429M16.3092 21.6429C15.8978 19.5231 15.5458 17.7094 15.9719 14.4041L16.3092 21.6429Z" stroke="#3E721D" style="stroke:#3E721D;stroke:color(display-p3 0.2431 0.4471 0.1137);stroke-opacity:1;"/>
<path id="Vector_5" d="M37.0357 16.6103C36.9163 16.4328 36.7911 16.2563 36.6629 16.0863C36.989 16.2129 37.2724 16.3572 37.5232 16.5152C38.1364 16.9013 38.583 17.386 38.9905 17.95C39.8762 19.1774 40.2813 20.5523 40.2839 24.3911C40.2838 30.2857 35.3821 35.328 29.3466 35.328C23.3097 35.328 18.4093 30.3308 18.4093 24.3907C18.4093 23.927 18.4033 23.5112 18.3979 23.1316C18.3775 21.7126 18.3645 20.799 18.6969 19.7743L18.697 19.774C19.2952 17.9262 20.3644 16.714 21.2022 16.1942L21.2023 16.1942C22.9032 15.1383 23.8468 14.0764 24.3669 13.2524C24.4583 13.1076 24.5364 12.9706 24.603 12.8427C24.633 12.8817 24.6643 12.9217 24.6969 12.9625C25.1645 13.5467 25.9122 14.2994 27.0467 15.0092C28.3156 15.8033 29.7191 16.2648 31.0663 16.7077C31.4313 16.8277 31.7922 16.9463 32.1451 17.0698C33.828 17.6588 35.4151 18.3776 36.7678 19.8728C36.9443 20.0679 37.1349 20.2539 37.332 20.3409C37.4393 20.3882 37.6416 20.4466 37.857 20.3422C38.0676 20.2402 38.146 20.0517 38.1751 19.9528C38.2297 19.7671 38.2134 19.5445 38.199 19.3945C38.1845 19.2441 38.1596 19.0709 38.1354 18.9033C38.1317 18.8772 38.1279 18.8511 38.1242 18.8253C38.0834 18.5391 37.9282 18.1693 37.747 17.8112C37.557 17.4359 37.3082 17.0156 37.0357 16.6103Z" stroke="#3E721D" style="stroke:#3E721D;stroke:color(display-p3 0.2431 0.4471 0.1137);stroke-opacity:1;"/>
<path id="Vector_6" d="M30.6146 27.0694H28.0733C28.0372 27.0694 28.0026 27.055 27.9771 27.0295C27.9516 27.004 27.9373 26.9694 27.9373 26.9334C27.9373 26.8973 27.9516 26.8627 27.9771 26.8372C28.0026 26.8117 28.0372 26.7974 28.0733 26.7974H30.6146C30.6507 26.7974 30.6852 26.8117 30.7108 26.8372C30.7363 26.8627 30.7506 26.8973 30.7506 26.9334C30.7506 26.9694 30.7363 27.004 30.7108 27.0295C30.6853 27.055 30.6507 27.0694 30.6146 27.0694Z" stroke="#3E721D" style="stroke:#3E721D;stroke:color(display-p3 0.2431 0.4471 0.1137);stroke-opacity:1;"/>
<path id="Vector_7" d="M24.2599 22.6213C24.0555 22.6213 23.8595 22.5401 23.715 22.3956C23.5705 22.2511 23.4893 22.0551 23.4893 21.8507V20.58C23.4893 20.3756 23.5705 20.1796 23.715 20.035C23.8595 19.8905 24.0555 19.8093 24.2599 19.8093C24.4643 19.8093 24.6603 19.8905 24.8049 20.035C24.9494 20.1796 25.0306 20.3756 25.0306 20.58V21.8507C25.0306 22.0551 24.9494 22.2511 24.8049 22.3956C24.6603 22.5401 24.4643 22.6213 24.2599 22.6213ZM34.4279 22.6213C34.2235 22.6213 34.0275 22.5401 33.883 22.3956C33.7385 22.2511 33.6573 22.0551 33.6573 21.8507V20.58C33.6573 20.3756 33.7385 20.1796 33.883 20.035C34.0275 19.8905 34.2235 19.8093 34.4279 19.8093C34.6323 19.8093 34.8283 19.8905 34.9729 20.035C35.1174 20.1796 35.1986 20.3756 35.1986 20.58V21.8507C35.1986 22.0551 35.1174 22.2511 34.9729 22.3956C34.8283 22.5401 34.6323 22.6213 34.4279 22.6213Z" stroke="#3E721D" style="stroke:#3E721D;stroke:color(display-p3 0.2431 0.4471 0.1137);stroke-opacity:1;"/>
<path id="Vector_8" d="M17.8333 37.8333H20.8333V47.4999H17.8333V37.8333ZM37.8333 37.8333H40.8333V47.4999H37.8333V37.8333Z" stroke="#3E721D" style="stroke:#3E721D;stroke:color(display-p3 0.2431 0.4471 0.1137);stroke-opacity:1;"/>
<path id="Vector_9" d="M18 47.1667H40.8333V47.5001H18V47.1667Z" stroke="#3E721D" style="stroke:#3E721D;stroke:color(display-p3 0.2431 0.4471 0.1137);stroke-opacity:1;"/>
<path id="Vector_10" d="M8.83333 47.5001H6.5V42.3334C6.5 42.024 6.62292 41.7272 6.84171 41.5085C7.0605 41.2897 7.35725 41.1667 7.66667 41.1667C7.97609 41.1667 8.27283 41.2897 8.49162 41.5085C8.71042 41.7272 8.83333 42.024 8.83333 42.3334V47.5001Z" stroke="#3E721D" style="stroke:#3E721D;stroke:color(display-p3 0.2431 0.4471 0.1137);stroke-opacity:1;"/>
<path id="Vector_11" d="M7.66667 36.504C10.9316 36.504 13.6041 33.97 13.8229 30.7594C13.9728 30.752 14.152 30.7482 14.335 30.7483C14.5072 30.7484 14.6762 30.752 14.8207 30.7588C14.717 32.5043 13.9776 34.1575 12.7343 35.4009C11.3903 36.7449 9.56738 37.5 7.66667 37.5C5.76595 37.5 3.94308 36.7449 2.59907 35.4009C1.35569 34.1575 0.616368 32.5043 0.512629 30.7588C0.657101 30.752 0.826108 30.7484 0.998334 30.7483C1.18132 30.7482 1.36052 30.752 1.51047 30.7594C1.72926 33.97 4.40178 36.504 7.66667 36.504ZM13.513 30.7878C13.513 30.7878 13.5139 30.7875 13.516 30.7871C13.5141 30.7876 13.5131 30.7878 13.513 30.7878ZM15.1589 30.7887C15.1589 30.7887 15.1579 30.7885 15.156 30.788C15.158 30.7884 15.159 30.7887 15.1589 30.7887ZM0.174395 30.7887C0.174354 30.7887 0.1753 30.7884 0.177359 30.788C0.175466 30.7885 0.174437 30.7887 0.174395 30.7887ZM1.82031 30.7878C1.82027 30.7878 1.8192 30.7876 1.81724 30.7871C1.81938 30.7875 1.82036 30.7878 1.82031 30.7878Z" stroke="#3E721D" style="stroke:#3E721D;stroke:color(display-p3 0.2431 0.4471 0.1137);stroke-opacity:1;"/>
<path id="Vector_12" d="M1.5 30.3333C1.5 30.4659 1.44732 30.5931 1.35355 30.6869C1.25979 30.7807 1.13261 30.8333 1 30.8333C0.867391 30.8333 0.740214 30.7807 0.646446 30.6869C0.552679 30.5931 0.5 30.4659 0.5 30.3333V19C0.5 18.8674 0.552678 18.7402 0.646447 18.6464C0.740215 18.5527 0.867392 18.5 1 18.5C1.13261 18.5 1.25978 18.5527 1.35355 18.6464C1.44732 18.7402 1.5 18.8674 1.5 19V30.3333ZM14.8333 30.3333C14.8333 30.4659 14.7807 30.5931 14.6869 30.6869C14.5931 30.7807 14.4659 30.8333 14.3333 30.8333C14.2007 30.8333 14.0735 30.7807 13.9798 30.6869C13.886 30.5931 13.8333 30.4659 13.8333 30.3333V19C13.8333 18.8674 13.886 18.7402 13.9798 18.6464C14.0735 18.5527 14.2007 18.5 14.3333 18.5C14.4659 18.5 14.5931 18.5527 14.6869 18.6464C14.7807 18.7402 14.8333 18.8674 14.8333 19V30.3333ZM8.02022 18.6464L8.37342 18.2932L8.02022 18.6464C8.11399 18.7402 8.16667 18.8674 8.16667 19V41.3333C8.16667 41.4659 8.11399 41.5931 8.02022 41.6869C7.92645 41.7807 7.79928 41.8333 7.66667 41.8333C7.53406 41.8333 7.40688 41.7807 7.31311 41.6869C7.21935 41.5931 7.16667 41.4659 7.16667 41.3333V19C7.16667 18.8674 7.21934 18.7402 7.31311 18.6464C7.40688 18.5527 7.53406 18.5 7.66667 18.5C7.79927 18.5 7.92645 18.5527 8.02022 18.6464Z" stroke="#3E721D" style="stroke:#3E721D;stroke:color(display-p3 0.2431 0.4471 0.1137);stroke-opacity:1;"/>
</g>
<defs>
<clipPath id="clip0_356_766">
<rect width="48" height="48" fill="white" style="fill:white;fill:white;fill-opacity:1;"/>
</clipPath>
</defs>
</svg>
