<svg width="48" height="48" viewBox="0 0 48 48" fill="none" xmlns="http://www.w3.org/2000/svg">
<g id="twemoji:farmer" clip-path="url(#clip0_356_766)">
<path id="Vector" d="M48.0001 47.9999V45.3333C48.0001 43.2115 47.1572 41.1767 45.6569 39.6764C44.1566 38.1761 42.1218 37.3333 40.0001 37.3333H18.6667C16.545 37.3333 14.5102 38.1761 13.0099 39.6764C11.5096 41.1767 10.6667 43.2115 10.6667 45.3333V47.9999H48.0001Z" fill="#77B255" style="fill:#77B255;fill:color(display-p3 0.4667 0.6980 0.3333);fill-opacity:1;"/>
<path id="Vector_2" d="M29.3334 45.3333C30.3561 45.3333 36.0001 41.3333 36.0001 37.3333H22.6667C22.6667 41.3333 28.3107 45.3333 29.3334 45.3333Z" fill="#3E721D" style="fill:#3E721D;fill:color(display-p3 0.2431 0.4471 0.1137);fill-opacity:1;"/>
<path id="Vector_3" d="M23.52 37.3839C23.52 41.1786 35.1467 41.3333 35.1467 37.3839V32.3853H23.52V37.3839Z" fill="#FFDC5D" style="fill:#FFDC5D;fill:color(display-p3 1.0000 0.8627 0.3647);fill-opacity:1;"/>
<path id="Vector_4" d="M23.5093 34.6307C25.1306 36.4627 27.1413 36.9587 29.3279 36.9587C31.5133 36.9587 33.5239 36.4627 35.1466 34.6307V29.9761H23.5093V34.6307Z" fill="#F9CA55" style="fill:#F9CA55;fill:color(display-p3 0.9765 0.7922 0.3333);fill-opacity:1;"/>
<path id="Vector_5" d="M33.5361 4.40011C30.9694 3.56944 25.7014 3.78678 24.1921 5.74944C21.6947 5.79744 22.0641 10.6961 17.3747 9.70545C16.3907 11.0441 15.6961 12.6361 15.4761 14.3401C14.8787 18.9734 15.7894 20.8388 16.2641 24.3214C16.8014 28.2681 19.0201 29.5308 20.7934 30.0588C23.3454 33.4308 26.0587 33.2868 30.6147 33.2868C39.5107 33.2868 42.9761 27.3428 43.3507 17.2334C43.4574 14.3574 42.7201 11.8108 41.2387 9.70145C36.1227 11.6881 36.9547 5.50678 33.5361 4.40011Z" fill="#FFAC33" style="fill:#FFAC33;fill:color(display-p3 1.0000 0.6745 0.2000);fill-opacity:1;"/>
<path id="Vector_6" d="M39.3959 17.6574C38.5346 16.4654 37.4333 15.5054 35.0173 15.1667C35.9239 15.5814 37.5159 18.1027 37.6293 18.896C37.7426 19.6894 37.8559 20.3307 37.1386 19.5374C34.2653 16.3614 30.4119 16.5254 27.3119 14.5854C25.1466 13.2307 24.4866 11.7307 24.4866 11.7307C24.4866 11.7307 24.2226 13.7307 20.9386 15.7694C19.9866 16.36 18.8506 17.676 18.2213 19.62C17.7679 21.0174 17.9093 22.2627 17.9093 24.3907C17.9093 30.604 23.0306 35.828 29.3466 35.828C35.6626 35.828 40.7839 30.5574 40.7839 24.3907C40.7813 20.5267 40.3773 19.0174 39.3959 17.6574Z" fill="#FFDC5D" style="fill:#FFDC5D;fill:color(display-p3 1.0000 0.8627 0.3647);fill-opacity:1;"/>
<path id="Vector_7" d="M30.6146 27.5694H28.0733C27.9046 27.5694 27.7428 27.5024 27.6235 27.3831C27.5043 27.2638 27.4373 27.102 27.4373 26.9334C27.4373 26.7647 27.5043 26.6029 27.6235 26.4836C27.7428 26.3644 27.9046 26.2974 28.0733 26.2974H30.6146C30.7833 26.2974 30.945 26.3644 31.0643 26.4836C31.1836 26.6029 31.2506 26.7647 31.2506 26.9334C31.2506 27.102 31.1836 27.2638 31.0643 27.3831C30.945 27.5024 30.7833 27.5694 30.6146 27.5694Z" fill="#C1694F" style="fill:#C1694F;fill:color(display-p3 0.7569 0.4118 0.3098);fill-opacity:1;"/>
<path id="Vector_8" d="M24.2599 23.1213C23.9229 23.1213 23.5997 22.9875 23.3614 22.7492C23.1231 22.5109 22.9893 22.1877 22.9893 21.8507V20.58C22.9893 20.243 23.1231 19.9198 23.3614 19.6815C23.5997 19.4432 23.9229 19.3093 24.2599 19.3093C24.5969 19.3093 24.9201 19.4432 25.1584 19.6815C25.3967 19.9198 25.5306 20.243 25.5306 20.58V21.8507C25.5306 22.1877 25.3967 22.5109 25.1584 22.7492C24.9201 22.9875 24.5969 23.1213 24.2599 23.1213ZM34.4279 23.1213C34.0909 23.1213 33.7677 22.9875 33.5294 22.7492C33.2911 22.5109 33.1573 22.1877 33.1573 21.8507V20.58C33.1573 20.243 33.2911 19.9198 33.5294 19.6815C33.7677 19.4432 34.0909 19.3093 34.4279 19.3093C34.7649 19.3093 35.0881 19.4432 35.3264 19.6815C35.5647 19.9198 35.6986 20.243 35.6986 20.58V21.8507C35.6986 22.1877 35.5647 22.5109 35.3264 22.7492C35.0881 22.9875 34.7649 23.1213 34.4279 23.1213Z" fill="#662113" style="fill:#662113;fill:color(display-p3 0.4000 0.1294 0.0745);fill-opacity:1;"/>
<path id="Vector_9" d="M29.512 32.8759C25.84 32.8759 24.712 31.9359 24.524 31.7453C24.4408 31.6663 24.374 31.5717 24.3274 31.4669C24.2807 31.3621 24.2552 31.2492 24.2522 31.1345C24.2462 30.903 24.3325 30.6786 24.492 30.5106C24.6514 30.3426 24.8711 30.2449 25.1027 30.2389C25.3342 30.2329 25.5587 30.3191 25.7266 30.4786C25.796 30.5279 26.688 31.1279 29.512 31.1279C32.4453 31.1279 33.2933 30.4813 33.3013 30.4746C33.3819 30.3947 33.4776 30.3318 33.5828 30.2894C33.6881 30.2471 33.8007 30.2263 33.9142 30.2281C34.0276 30.23 34.1395 30.2545 34.2433 30.3003C34.3471 30.3461 34.4407 30.4121 34.5186 30.4946C34.6802 30.6641 34.7688 30.8902 34.7653 31.1244C34.7619 31.3586 34.6666 31.582 34.5 31.7466C34.3106 31.9359 33.184 32.8759 29.512 32.8759Z" fill="#C1694F" style="fill:#C1694F;fill:color(display-p3 0.7569 0.4118 0.3098);fill-opacity:1;"/>
<path id="Vector_10" d="M17.3333 37.3333H21.3333V47.9999H17.3333V37.3333ZM37.3333 37.3333H41.3333V47.9999H37.3333V37.3333Z" fill="#3B88C3" style="fill:#3B88C3;fill:color(display-p3 0.2314 0.5333 0.7647);fill-opacity:1;"/>
<path id="Vector_11" d="M17.5 46.6667H41.3333V48.0001H17.5V46.6667Z" fill="#3B88C3" style="fill:#3B88C3;fill:color(display-p3 0.2314 0.5333 0.7647);fill-opacity:1;"/>
<path id="Vector_12" d="M40.0001 11.7333C40.0001 13.4933 35.8774 14.6667 29.3334 14.6667C22.7881 14.6667 18.6667 13.4933 18.6667 11.7333C18.6667 7.004 24.0001 0 25.7774 0C27.5561 0 28.7414 2.34667 29.3334 2.34667C29.9254 2.34667 31.1107 0 32.8894 0C34.6667 0 40.0001 7.004 40.0001 11.7333Z" fill="#C1694F" style="fill:#C1694F;fill:color(display-p3 0.7569 0.4118 0.3098);fill-opacity:1;"/>
<path id="Vector_13" d="M47.9212 10.6666C47.9212 12.8759 43.2546 18.6666 29.2546 18.6666C15.2546 18.6666 10.5879 12.8759 10.5879 10.6666C10.5879 8.45722 19.6812 9.33322 29.2546 9.33322C38.8279 9.33322 47.9212 8.45722 47.9212 10.6666Z" fill="#C1694F" style="fill:#C1694F;fill:color(display-p3 0.7569 0.4118 0.3098);fill-opacity:1;"/>
<path id="Vector_14" d="M40.0001 11.7333C40.0001 13.4933 35.8774 14.6666 29.3334 14.6666C22.7881 14.6666 18.6667 13.4933 18.6667 11.7333C18.6667 10.9786 18.8027 10.1666 19.0387 9.33325C22.2227 11.9999 36.4441 11.9999 39.6294 9.33859C39.8627 10.1693 40.0001 10.9799 40.0001 11.7333Z" fill="#292F33" style="fill:#292F33;fill:color(display-p3 0.1608 0.1843 0.2000);fill-opacity:1;"/>
<path id="Vector_15" d="M9.33333 42.3334C9.33333 41.8914 9.15774 41.4675 8.84518 41.1549C8.53262 40.8423 8.10869 40.6667 7.66667 40.6667C7.22464 40.6667 6.80072 40.8423 6.48816 41.1549C6.17559 41.4675 6 41.8914 6 42.3334V48.0001H9.33333V42.3334Z" fill="#C1694F" style="fill:#C1694F;fill:color(display-p3 0.7569 0.4118 0.3098);fill-opacity:1;"/>
<path id="Vector_16" d="M13.3373 30.3333C13.3373 33.4666 10.7987 36.004 7.66667 36.004C4.53467 36.004 1.996 33.4666 1.996 30.3333C1.996 30.2186 0 30.2213 0 30.3333C0 32.3666 0.807736 34.3167 2.24551 35.7544C3.68329 37.1922 5.63334 38 7.66667 38C9.69999 38 11.65 37.1922 13.0878 35.7544C14.5256 34.3167 15.3333 32.3666 15.3333 30.3333C15.3333 30.2213 13.3373 30.2186 13.3373 30.3333Z" fill="#66757F" style="fill:#66757F;fill:color(display-p3 0.4000 0.4588 0.4980);fill-opacity:1;"/>
<path id="Vector_17" d="M2 30.3333C2 30.5986 1.89464 30.8529 1.70711 31.0404C1.51957 31.228 1.26522 31.3333 1 31.3333C0.734783 31.3333 0.48043 31.228 0.292893 31.0404C0.105357 30.8529 0 30.5986 0 30.3333L0 19C0 18.7348 0.105357 18.4804 0.292893 18.2929C0.48043 18.1054 0.734783 18 1 18C1.26522 18 1.51957 18.1054 1.70711 18.2929C1.89464 18.4804 2 18.7348 2 19V30.3333ZM15.3333 30.3333C15.3333 30.5986 15.228 30.8529 15.0404 31.0404C14.8529 31.228 14.5985 31.3333 14.3333 31.3333C14.0681 31.3333 13.8138 31.228 13.6262 31.0404C13.4387 30.8529 13.3333 30.5986 13.3333 30.3333V19C13.3333 18.7348 13.4387 18.4804 13.6262 18.2929C13.8138 18.1054 14.0681 18 14.3333 18C14.5985 18 14.8529 18.1054 15.0404 18.2929C15.228 18.4804 15.3333 18.7348 15.3333 19V30.3333ZM8.66667 41.3333C8.66667 41.5986 8.56131 41.8529 8.37377 42.0404C8.18624 42.228 7.93188 42.3333 7.66667 42.3333C7.40145 42.3333 7.1471 42.228 6.95956 42.0404C6.77202 41.8529 6.66667 41.5986 6.66667 41.3333V19C6.66667 18.7348 6.77202 18.4804 6.95956 18.2929C7.1471 18.1054 7.40145 18 7.66667 18C7.93188 18 8.18624 18.1054 8.37377 18.2929C8.56131 18.4804 8.66667 18.7348 8.66667 19V41.3333Z" fill="#66757F" style="fill:#66757F;fill:color(display-p3 0.4000 0.4588 0.4980);fill-opacity:1;"/>
</g>
<defs>
<clipPath id="clip0_356_766">
<rect width="48" height="48" fill="white" style="fill:white;fill:white;fill-opacity:1;"/>
</clipPath>
</defs>
</svg>
