<svg width="15" height="12" viewBox="0 0 15 12" fill="none" xmlns="http://www.w3.org/2000/svg">
<g id="Group 1000001749">
<path id="Vector" d="M14.9466 1.50692C14.4311 1.73738 13.87 1.90324 13.2921 1.96783C13.8921 1.59847 14.3414 1.01494 14.5557 0.326713C13.9927 0.673774 13.376 0.917138 12.7328 1.04601C12.4639 0.748213 12.1388 0.510972 11.7776 0.349074C11.4165 0.187175 11.027 0.104087 10.6335 0.104988C9.04133 0.104988 7.76087 1.44233 7.76087 3.08344C7.76087 3.3139 7.78783 3.54435 7.83163 3.76608C5.44761 3.63689 3.32137 2.45668 1.90781 0.6497C1.65024 1.10557 1.51527 1.62464 1.51693 2.15289C1.51693 3.18645 2.02406 4.0978 2.79739 4.63378C2.34166 4.61518 1.89659 4.48538 1.4984 4.25492V4.29159C1.4984 5.73892 2.4857 6.93833 3.80155 7.21418C3.55448 7.28068 3.30032 7.3147 3.04506 7.31544C2.85805 7.31544 2.68114 7.29623 2.50255 7.27005C2.86647 8.45025 3.92622 9.30748 5.18815 9.33541C4.20085 10.1368 2.96419 10.6082 1.62139 10.6082C1.38046 10.6082 1.15807 10.5994 0.927246 10.5715C2.20097 11.4182 3.71225 11.9071 5.33978 11.9071C10.6234 11.9071 13.5145 7.37131 13.5145 3.43437C13.5145 3.30517 13.5145 3.17598 13.5061 3.04678C14.0655 2.62253 14.5557 2.09703 14.9466 1.50692Z" fill="white" style="fill:white;fill:white;fill-opacity:1;"/>
</g>
</svg>
