<svg width="18" height="18" viewBox="0 0 18 18" fill="none" xmlns="http://www.w3.org/2000/svg">
<g id="content_copy">
<mask id="mask0_504_3956" style="mask-type:alpha" maskUnits="userSpaceOnUse" x="0" y="0" width="18" height="18">
<rect id="Bounding box" width="18" height="18" fill="#D9D9D9" style="fill:#D9D9D9;fill:color(display-p3 0.8510 0.8510 0.8510);fill-opacity:1;"/>
</mask>
<g mask="url(#mask0_504_3956)">
<path id="content_copy_2" d="M6.75 13.4995C6.3375 13.4995 5.98438 13.3526 5.69063 13.0589C5.39688 12.7651 5.25 12.412 5.25 11.9995V2.99951C5.25 2.58701 5.39688 2.23389 5.69063 1.94014C5.98438 1.64639 6.3375 1.49951 6.75 1.49951H13.5C13.9125 1.49951 14.2656 1.64639 14.5594 1.94014C14.8531 2.23389 15 2.58701 15 2.99951V11.9995C15 12.412 14.8531 12.7651 14.5594 13.0589C14.2656 13.3526 13.9125 13.4995 13.5 13.4995H6.75ZM6.75 11.9995H13.5V2.99951H6.75V11.9995ZM3.75 16.4995C3.3375 16.4995 2.98438 16.3526 2.69063 16.0589C2.39688 15.7651 2.25 15.412 2.25 14.9995V4.49951H3.75V14.9995H12V16.4995H3.75Z" fill="#4E4E4E" style="fill:#4E4E4E;fill:color(display-p3 0.3059 0.3059 0.3059);fill-opacity:1;"/>
</g>
</g>
</svg>
