<svg width="28" height="28" viewBox="0 0 28 28" fill="none" xmlns="http://www.w3.org/2000/svg">
<g id="mdi:settings">
<path id="Vector" d="M14 18.0834C12.917 18.0834 11.8784 17.6532 11.1126 16.8874C10.3469 16.1216 9.91666 15.083 9.91666 14C9.91666 12.9171 10.3469 11.8785 11.1126 11.1127C11.8784 10.3469 12.917 9.91671 14 9.91671C15.083 9.91671 16.1216 10.3469 16.8873 11.1127C17.6531 11.8785 18.0833 12.9171 18.0833 14C18.0833 15.083 17.6531 16.1216 16.8873 16.8874C16.1216 17.6532 15.083 18.0834 14 18.0834ZM22.6683 15.1317C22.715 14.7584 22.75 14.385 22.75 14C22.75 13.615 22.715 13.23 22.6683 12.8334L25.13 10.9317C25.3517 10.7567 25.41 10.4417 25.27 10.185L22.9367 6.14838C22.7967 5.89171 22.4817 5.78671 22.225 5.89171L19.32 7.05838C18.7133 6.60338 18.0833 6.20671 17.3483 5.91504L16.9167 2.82338C16.893 2.68596 16.8214 2.56137 16.7146 2.47169C16.6078 2.382 16.4728 2.333 16.3333 2.33338H11.6667C11.375 2.33338 11.13 2.54338 11.0833 2.82338L10.6517 5.91504C9.91666 6.20671 9.28666 6.60338 8.68 7.05838L5.775 5.89171C5.51833 5.78671 5.20333 5.89171 5.06333 6.14838L2.73 10.185C2.57833 10.4417 2.64833 10.7567 2.87 10.9317L5.33166 12.8334C5.285 13.23 5.25 13.615 5.25 14C5.25 14.385 5.285 14.7584 5.33166 15.1317L2.87 17.0684C2.64833 17.2434 2.57833 17.5584 2.73 17.815L5.06333 21.8517C5.20333 22.1084 5.51833 22.2017 5.775 22.1084L8.68 20.93C9.28666 21.3967 9.91666 21.7934 10.6517 22.085L11.0833 25.1767C11.13 25.4567 11.375 25.6667 11.6667 25.6667H16.3333C16.625 25.6667 16.87 25.4567 16.9167 25.1767L17.3483 22.085C18.0833 21.7817 18.7133 21.3967 19.32 20.93L22.225 22.1084C22.4817 22.2017 22.7967 22.1084 22.9367 21.8517L25.27 17.815C25.41 17.5584 25.3517 17.2434 25.13 17.0684L22.6683 15.1317Z" fill="white" style="fill:white;fill-opacity:1;"/>
</g>
</svg>
